<svg xmlns="http://www.w3.org/2000/svg" width="512" height="512" viewBox="0 0 512 512"><path fill="#82d78c" d="M395.101 2.167c6.712 29.334-2.201 62.557-26.389 86.746s-57.412 33.101-86.746 26.389c-6.712-29.334 2.201-62.557 26.389-86.746s57.413-33.102 86.746-26.389z"/><path fill="#a0eb87" d="M395.101 2.167L281.967 115.3c-6.712-29.334 2.201-62.557 26.389-86.745s57.412-33.102 86.745-26.388z"/><path fill="#82d78c" d="M151.558 1.505c-4.665 20.384 1.53 43.471 18.338 60.279s39.895 23.003 60.28 18.338c4.665-20.384-1.53-43.471-18.338-60.279S171.941-3.16 151.558 1.505z"/><path fill="#a0eb87" d="M151.558 1.505l78.618 78.618c4.665-20.384-1.53-43.471-18.338-60.279S171.941-3.16 151.558 1.505z"/><path fill="#76b580" d="M341.706 55.562a8.826 8.826 0 0 0-12.485 0l-64.391 64.391V52.975a8.827 8.827 0 0 0-8.829-8.829 8.827 8.827 0 0 0-8.829 8.829v31.712l-46.758-46.758a8.826 8.826 0 0 0-12.485 0 8.826 8.826 0 0 0 0 12.485l59.243 59.243v57.707a8.827 8.827 0 0 0 8.829 8.829 8.827 8.827 0 0 0 8.829-8.829V144.92l76.875-76.875a8.822 8.822 0 0 0 .001-12.483z"/><path fill="#ff6464" d="M458.864 226.633c-48.517-101.005-138.687-77.112-182.066-65.61-7.406 1.972-17.554 4.667-20.797 4.667-3.242 0-13.39-2.695-20.84-4.675-43.335-11.494-133.518-35.401-182.023 65.619-18.809 39.174-18.011 82.934 2.367 130.066 32.566 75.338 106.462 137.121 136.946 149.119 11.912 4.69 21.516 6.184 29.63 6.184 7.82 0 14.257-1.391 20.021-2.632 4.747-1.021 8.842-1.902 13.899-1.902 5.057 0 9.152.88 13.999 1.925 5.638 1.217 12.027 2.592 19.9 2.592 9.406 0 19.103-2.02 29.647-6.167 30.484-11.997 104.384-73.781 136.95-149.119 20.378-47.133 21.176-90.895 2.367-130.067z"/><path fill="#e15050" d="M256.483 505.904c-23.021-11.998-78.827-73.781-103.421-149.119-15.389-47.132-15.992-90.893-1.787-130.067 12.768-35.213 29.677-58.704 47.67-73.913-46.362-7.666-108.442-3.994-145.807 73.826-18.809 39.174-18.011 82.934 2.367 130.066 32.566 75.337 106.462 137.121 136.946 149.119 11.912 4.69 21.516 6.184 29.63 6.184 7.82 0 14.257-1.391 20.021-2.632 4.747-1.021 8.842-1.902 13.899-1.902.96 0 1.785.158 2.687.216-.743-.754-1.482-1.401-2.205-1.778z"/><path fill="#ff8383" d="M419.655 379.651a8.842 8.842 0 0 1-4.44-1.199 8.834 8.834 0 0 1-3.177-12.079c4.634-7.941 8.682-15.917 12.041-23.685 16.141-37.325 17.132-71.228 2.949-100.767a158.046 158.046 0 0 0-4.182-8.13 8.832 8.832 0 0 1 3.467-12.002c4.259-2.345 9.635-.802 11.993 3.467a176.092 176.092 0 0 1 4.647 9.037c16.489 34.342 15.598 73.177-2.664 115.4-3.634 8.415-8.01 17.029-12.998 25.582a8.832 8.832 0 0 1-7.636 4.376z"/><path fill="#ff9a9a" d="M406.109 206.898a8.806 8.806 0 0 1-5.816-2.19c-7.178-6.294-14.929-10.907-23.703-14.106a8.829 8.829 0 0 1-5.268-11.321c1.673-4.57 6.738-6.932 11.321-5.268 10.709 3.906 20.564 9.769 29.289 17.416 3.668 3.216 4.035 8.795.819 12.459a8.805 8.805 0 0 1-6.642 3.01z"/></svg>