<svg xmlns="http://www.w3.org/2000/svg" width="512" height="512" viewBox="0 0 512 512"><path fill="#c04935" d="M454.469 252.087H57.531c-19.199 0-34.823 15.757-34.823 35.122v2.883L66.33 480.859l.639 2.293c5.19 15.725 20.453 27.14 36.286 27.14h305.498c15.833 0 31.093-11.411 36.286-27.14l44.254-193.059v-2.883c-.004-19.367-15.625-35.123-34.824-35.123zM324.798 461.688l2.786-31.013h22.874l-4.88 31.013h-20.78zm-52.936 0v-31.013h23.854l-2.786 31.013h-21.068zm-52.796 0l-2.786-31.013h23.854v31.013h-21.068zm-52.643 0l-4.884-31.013h22.878l2.786 31.013h-20.78zM87.324 365.12h31.746l5.058 32.142H94.675l-7.351-32.142zm63.895 0h27.31l2.887 32.142H156.28l-5.061-32.142zm21.523-64.43l2.786 31.016h-29.564l-4.88-31.016h31.658zm198.175 0l-4.88 31.016h-29.568l2.786-31.016h31.662zm-66.315 31.017h-32.743V300.69h35.532l-2.789 31.017zm-32.74 33.413h29.745l-2.887 32.142h-26.855V365.12h-.003zm-31.724 32.142h-26.855l-2.887-32.142h29.745v32.142h-.003zm0-65.555h-32.746l-2.786-31.016h35.532v31.016zm90.443 65.555l2.887-32.142h27.31l-5.061 32.142h-25.136zm62.349-32.142h31.746l-7.347 32.142h-29.453l5.054-32.142zm39.384-33.413h-34.122l4.88-31.016h36.334l-7.092 31.016zm-323.39-31.017l4.88 31.016H79.682l-7.093-31.016h36.335zm-6.614 129.985h27.077l4.88 31.013h-24.864l-7.093-31.013zm300.284 31.013H377.73l4.88-31.013h27.074l-7.09 31.013z"/><path fill="#cd4e38" d="M512 288.446c0 7.201-5.839 13.04-13.04 13.04H13.04c-7.201 0-13.04-5.839-13.04-13.04V235.25c0-7.201 5.839-13.04 13.04-13.04h485.92c7.201 0 13.04 5.839 13.04 13.04v53.196z"/><path fill="#383131" d="M286.525 225.308c0 7.201-5.839 13.04-13.04 13.04h-47.346c-7.201 0-13.044-5.839-13.044-13.04V14.749c0-7.201 5.843-13.04 13.044-13.04h47.346c7.201 0 13.04 5.839 13.04 13.04v210.559z"/><path fill="#4b4040" d="M198.923 210.08v24.333c0 28.109 22.787 50.893 50.889 50.893 28.109 0 50.893-22.787 50.893-50.893V210.08H198.923z"/><path fill="#514646" d="M254.223 196.613a4.41 4.41 0 0 1-4.412 4.408 4.41 4.41 0 0 1-4.408-4.408V24.107a4.41 4.41 0 0 1 8.82 0v172.506z"/></svg>