<!-- Generated by IcoMoon.io -->
<svg version="1.1" xmlns="http://www.w3.org/2000/svg" width="32" height="32" viewBox="0 0 32 32">
<title>search</title>
<path d="M1.057 28.224l1.885 1.885 5.847-5.847-1.836-1.935-5.896 5.896zM18.833 1.333c-6.533 0-11.833 5.299-11.833 11.833 0 2.559 0.823 4.92 2.203 6.857l2.227 2.347c2.028 1.636 4.596 2.631 7.404 2.631 6.536 0 11.833-5.299 11.833-11.833s-5.297-11.835-11.833-11.835zM18.833 22.333c-5.055 0-9.167-4.112-9.167-9.167s4.112-9.167 9.167-9.167 9.167 4.112 9.167 9.167-4.112 9.167-9.167 9.167z"></path>
</svg>
