<svg xmlns="http://www.w3.org/2000/svg" width="257" height="306" viewBox="0 0 257 306"><path fill="#2e001e" d="M16 10h220v214H16z"/><path fill="#ff2bc2" d="M6 0v234h240V0zm10 10h220v214H16z"/><path fill="#ff2bc2" d="M180.3 98.3a13.731 13.731 0 0 0-5.8-1c-12.6 0-21 9.7-21 25.8 0 18.4 8.6 25.8 19.8 25.8a18.866 18.866 0 0 0 6.9-1.1V98.3zm-44.8 25.6c0-23.3 15-41.5 39.6-41.5a44.345 44.345 0 0 1 5.2.2v-26a1 1 0 0 1 1-1h16.1c.8 0 1 .3 1 .8v91.4a71.228 71.228 0 0 0 .5 9.8c0 .7 0 .8-.6 1.1a59.567 59.567 0 0 1-25.6 5.8c-21.7 0-37.2-13.4-37.2-40.6zm-34.1-16.2l28 54.3c.5.8.2 1.6-.6 1.6h-17.4a1.962 1.962 0 0 1-2.1-1.3q-9.6-19.8-19.6-41.1h-.2c-6 13.4-12.6 28-19 41.2a1.92 1.92 0 0 1-1.8 1.1H52.1c-1 0-1.1-.8-.6-1.4l27.4-52.7L52.4 57a.885.885 0 0 1 .7-1.5h17.2c1 0 1.5.2 1.8 1.1C78.4 69.9 84.8 83 90.8 96.4h.2c5.8-13.2 12.2-26.5 18.3-39.6.5-.8.8-1.3 1.8-1.3h16.1c.8 0 1.1.6.6 1.5l-26.4 50.7z"/><text fill="#fd2bc2" font-family="Montserrat-Bold, Montserrat" font-size="45" font-weight="700" transform="translate(1 295)"><tspan x="0" y="0">ADOBE XD</tspan></text></svg>