<svg xmlns="http://www.w3.org/2000/svg" width="777" height="258.02" viewBox="0 0 777 258.02"><g id="Group_15" transform="translate(-551 -282)"><g id="Group_14"><g id="circleci" fill="#343434" transform="translate(550.165 282)"><circle id="Ellipse_2" cx="30.59" cy="30.59" r="30.59" transform="translate(95.57 98.42)"/><path id="Path_26" d="M1.2 96.572c0 .368-.369 1.105-.369 1.474a6.213 6.213 0 0 0 6.269 6.266h51.973a6.036 6.036 0 0 0 5.529-3.686 67.269 67.269 0 1 1 0 56.4c-1.106-2.58-2.949-4.055-5.53-4.055H7.1a6.213 6.213 0 0 0-6.267 6.267 2.215 2.215 0 0 0 .369 1.474c14.375 56.026 64.872 97.309 124.953 97.309A129.008 129.008 0 1 0 126.157 0C66.077 0 15.579 41.283 1.2 96.572z"/></g></g><text id="circleci-2" fill="#535151" font-family="Montserrat-Bold, Montserrat" font-size="135" font-weight="700" transform="translate(825 460)"><tspan x="0" y="0">circleci</tspan></text></g></svg>