<svg xmlns="http://www.w3.org/2000/svg" width="568.68" height="224.88" viewBox="0 0 568.68 224.88"><path fill="#8080f2" d="M77.965 80.568l48.57-28.042a3.929 3.929 0 0 1 3.93 0l48.57 28.042a3.932 3.932 0 0 1 1.965 3.4v56.084a3.934 3.934 0 0 1-1.965 3.4l-48.57 28.048a3.929 3.929 0 0 1-3.93 0l-48.57-28.042a3.931 3.931 0 0 1-1.965-3.4V83.97a3.935 3.935 0 0 1 1.965-3.4"/><path fill="#4b32c3" d="M254.417 107.417L196.323 6.35A12.246 12.246 0 0 0 186.1 0H69.906a12.249 12.249 0 0 0-10.23 6.35L1.583 107.194a12.02 12.02 0 0 0 0 11.923l58.093 100.239a11.471 11.471 0 0 0 10.23 5.522h116.188a11.418 11.418 0 0 0 10.228-5.467l58.094-100.4a11.4 11.4 0 0 0 0-11.592zm-48.1 48.6a4.261 4.261 0 0 1-2.182 3.6l-74 42.693a4.21 4.21 0 0 1-4.186 0l-74.06-42.689a4.268 4.268 0 0 1-2.188-3.6V70.628a4.253 4.253 0 0 1 2.176-3.6l74-42.694a4.2 4.2 0 0 1 4.185 0l74.06 42.694a4.269 4.269 0 0 1 2.2 3.6v85.388z"/><path d="M285.878 76.886V149h50.1v-8.08h-40.5v-24.947h37.466v-8.08h-37.471V84.966h40.2v-8.08zM389.3 97.995h9.09a25.421 25.421 0 0 0-2.272-10.252 19.975 19.975 0 0 0-5.656-7.12 23.33 23.33 0 0 0-8.333-4.141 38.533 38.533 0 0 0-10.3-1.313 36.992 36.992 0 0 0-9.645 1.262 26.52 26.52 0 0 0-8.384 3.839 19.426 19.426 0 0 0-5.909 6.565 19.107 19.107 0 0 0-2.222 9.443 15.769 15.769 0 0 0 1.969 8.232 15.967 15.967 0 0 0 5.252 5.353 30.523 30.523 0 0 0 7.425 3.337q4.141 1.263 8.433 2.222t8.434 1.868a38.449 38.449 0 0 1 7.424 2.374 14.473 14.473 0 0 1 5.252 3.787 9.049 9.049 0 0 1 1.969 6.06 11.8 11.8 0 0 1-1.616 6.464 11.761 11.761 0 0 1-4.242 3.989 19.193 19.193 0 0 1-5.908 2.071 35.821 35.821 0 0 1-6.515.606 30.825 30.825 0 0 1-7.878-1.01 19.6 19.6 0 0 1-6.717-3.131 16.071 16.071 0 0 1-4.646-5.4 16.288 16.288 0 0 1-1.767-7.828h-9.09a25.359 25.359 0 0 0 2.373 11.363 21.786 21.786 0 0 0 6.464 7.878 28.31 28.31 0 0 0 9.494 4.587 42.283 42.283 0 0 0 11.464 1.516 43.841 43.841 0 0 0 9.948-1.162 28.79 28.79 0 0 0 9.039-3.737 21.2 21.2 0 0 0 6.616-6.666 18.107 18.107 0 0 0 2.576-9.847 18.085 18.085 0 0 0-1.969-8.888 17.546 17.546 0 0 0-5.252-5.858 27.817 27.817 0 0 0-7.424-3.687q-4.141-1.364-8.433-2.374t-8.434-1.868a44.162 44.162 0 0 1-7.424-2.171 14.6 14.6 0 0 1-5.252-3.383 7.517 7.517 0 0 1-1.969-5.4 11.712 11.712 0 0 1 1.363-5.909 10.6 10.6 0 0 1 3.636-3.788 15.823 15.823 0 0 1 5.2-2.02 29.335 29.335 0 0 1 5.959-.606q7.474 0 12.271 3.484t5.606 11.259zm23.735-21.109V149h47.775v-8.08h-38.178V76.886zm63.832 10.5v-10.5h-8.585v10.5zm-8.585 9.393V149h8.585V96.783zm21.917 0V149h8.585v-29.492a21.153 21.153 0 0 1 .96-6.515 14.8 14.8 0 0 1 2.878-5.2 12.783 12.783 0 0 1 4.8-3.434 17.5 17.5 0 0 1 6.818-1.212 10.509 10.509 0 0 1 7.777 2.828 10.372 10.372 0 0 1 2.828 7.676V149h8.585v-34.34a32.312 32.312 0 0 0-.859-7.727 14.633 14.633 0 0 0-2.979-6.009 14.115 14.115 0 0 0-5.555-3.939 22.66 22.66 0 0 0-8.585-1.414q-11.615 0-16.968 9.494h-.2v-8.282zm68.074 0V81.128h-8.583v15.655h-8.89v7.575h8.888v33.229a19.84 19.84 0 0 0 .707 5.858 7.122 7.122 0 0 0 2.172 3.434 8.383 8.383 0 0 0 3.838 1.667 30.827 30.827 0 0 0 5.708.454h6.565v-7.575h-3.939a28.632 28.632 0 0 1-3.283-.151 4.24 4.24 0 0 1-1.97-.656 2.5 2.5 0 0 1-.96-1.414 9.368 9.368 0 0 1-.253-2.424v-32.422h10.4v-7.575z"/></svg>