<svg xmlns="http://www.w3.org/2000/svg" width="273.11" height="394.31" viewBox="0 0 273.11 394.31"><path fill="#d99666" d="M.001 103h273.111l-27.311 264-100.141 27.31h-18.207L27.311 367z"/><path fill="#f4b459" d="M136.556 130.3h100.145L218.49 339.688 136.557 367l-.001-236.7z"/><path fill="#fff" d="M209.55 184.806l2.867-27.193H54.331l3.186 27.193 2.914 36.6h-.037l2.759 27.238h105.976l-3.641 43.334-28.932 9.14v-.282l-38.472-10.169-2.358-23.879H63.601l4.315 43.862v1.793l68.642 18.144 57.563-18.144h.7l.018-.246.127-.018v-1.438l5.208-62.1h.118l2.768-27.238H93.841l-2.913-36.6z"/><path fill="#e5e5e5" d="M136.556 157.613H54.331l3.186 27.193 2.914 36.6h-.037l2.759 27.238h73.4V221.4H93.841l-2.913-36.6h45.628zm0 143.22l-38.472-10.169-2.358-23.879H63.601l4.315 43.862v1.793l68.642 18.144v-29.751z"/><text fill="#005a9d" font-family="Montserrat-Bold, Montserrat" font-size="85" font-weight="700" transform="translate(14 82)"><tspan x="0" y="0">HTML</tspan></text></svg>