<svg xmlns="http://www.w3.org/2000/svg" width="274" height="325" viewBox="0 0 274 325"><path fill="#912626" d="M245.97 168.359c-13.662 7.121-84.434 36.22-99.5 44.075s-23.437 7.78-35.34 2.09-87.217-36.108-100.784-42.597C3.566 168.687 0 165.951 0 163.367v-25.876s98.05-21.345 113.879-27.024 21.32-5.884 34.79-.95S242.687 128.985 256 133.861l-.006 25.51c0 2.558-3.07 5.364-10.024 8.988"/><path fill="#c6302b" d="M245.965 142.636c-13.661 7.118-84.431 36.218-99.5 44.072s-23.436 7.78-35.338 2.09-87.214-36.113-100.78-42.594-13.847-10.948-.522-16.166 88.224-34.6 104.055-40.284 21.319-5.884 34.789-.948 83.819 32.935 97.13 37.81 13.827 8.9.166 16.02"/><path fill="#912626" d="M245.97 126.49c-13.662 7.122-84.434 36.22-99.5 44.078s-23.437 7.777-35.34 2.087-87.216-36.112-100.783-42.6C3.566 126.816 0 124.086 0 121.501V95.622s98.05-21.344 113.879-27.023 21.32-5.885 34.79-.95S242.688 87.116 256 91.99l-.006 25.513c0 2.557-3.07 5.363-10.024 8.987"/><path fill="#c6302b" d="M245.965 100.767c-13.661 7.12-84.431 36.218-99.5 44.075s-23.436 7.777-35.338 2.087-87.212-36.113-100.778-42.594S-3.5 93.388 9.825 88.168 98.05 53.564 113.88 47.886s21.319-5.884 34.789-.949 83.819 32.933 97.13 37.81 13.827 8.9.166 16.02"/><path fill="#912626" d="M245.97 83.069c-13.662 7.12-84.434 36.22-99.5 44.078s-23.437 7.777-35.34 2.087S23.913 93.121 10.346 86.639C3.566 83.396 0 80.663 0 78.081v-25.88S98.05 30.858 113.879 25.18s21.32-5.884 34.79-.95S242.688 43.694 256 48.571l-.006 25.512c0 2.555-3.07 5.361-10.024 8.986"/><path fill="#c6302b" d="M245.965 57.346c-13.665 7.12-84.431 36.22-99.498 44.07s-23.436 7.777-35.338 2.09-87.214-36.11-100.779-42.59-13.85-10.95-.525-16.169S98.05 10.146 113.88 4.466s21.32-5.883 34.789-.95 83.819 32.934 97.13 37.811 13.827 8.9.166 16.017"/><path fill="#fff" d="M159.283 32.173l-22.01 2.285-4.927 11.858-7.958-13.23L98.973 30.8l18.964-6.839-5.69-10.5L130 20.407l16.738-5.48-4.524 10.855 17.067 6.391m-28.249 57.518L89.955 72.654l58.86-9.035-17.783 26.072m-56.95-50.928c17.375 0 31.46 5.46 31.46 12.194s-14.085 12.195-31.46 12.195-31.46-5.46-31.46-12.195 14.085-12.194 31.46-12.194"/><path fill="#621b1c" d="M185.295 35.416l34.836 13.766-34.806 13.751-.03-27.517"/><path fill="#9a2928" d="M146.755 50.659L185.3 35.416l.03 27.519-3.779 1.478-34.796-13.754"/><text fill="#e34040" font-family="Montserrat-Bold, Montserrat" font-size="83" font-weight="700" transform="translate(8 304)"><tspan x="0" y="0">REDIS</tspan></text></svg>