<svg xmlns="http://www.w3.org/2000/svg" width="476.91" height="603" viewBox="0 0 476.91 603"><path fill="#fff" d="M238.453 0l238.453 134.9v269.791l-238.453 134.9L0 404.691V134.9z"/><path fill="#8ed6fb" d="M434.324 395.383l-188 106.344V418.9l117.134-64.439zm12.86-11.646v-222.4l-68.8 39.7v142.95l68.8 39.75zM41.818 395.383l188 106.344V418.9l-117.134-64.439zm-12.86-11.646v-222.4l68.8 39.7v142.95l-68.8 39.75zm8.049-236.789L229.82 37.861v80.084l-123.521 67.943-.944.54zm402.128 0L246.322 37.861v80.084l123.521 67.943.944.54z"/><path fill="#1c78c0" d="M229.82 400.06l-115.562-63.537v-125.9l115.562 66.721V400.06m16.5 0l115.562-63.536v-125.9l-115.56 66.72V400.06m-124.24-204.01l116.011-63.806 116.011 63.806-116.011 67-116.011-67"/><text fill="#1c78c0" font-family="Montserrat-SemiBold, Montserrat" font-size="72" font-weight="600" transform="translate(40 585)"><tspan x="0" y="0">WEBPACK</tspan></text></svg>