<svg xmlns="http://www.w3.org/2000/svg" width="221.03" height="219" viewBox="0 0 221.03 219"><g fill="#fff" stroke="#c1b8b8" stroke-width="6"><path stroke="none" d="M0 0h221.03v219H0z"/><path fill="none" d="M3 3h215.03v213H3z"/></g><path fill="#ff5d5d" d="M129.376 140.86a34.6 34.6 0 0 1-15.484-4.029q-8.058-4.029-18.486-14.931l-33.18-34.76v52.14h-14.22V53.96q0-8.058-2.212-11.929t-8.848-3.871h-3.16V35h14.22q5.846 0 8.769 1.5a8.729 8.729 0 0 1 4.183 5.452q1.264 3.95 1.264 12.008L14 118.74l81.406-67.15 3.16-3.318q4.424-4.582 7.426-7.189a26.477 26.477 0 0 1 7.11-4.345A23.3 23.3 0 0 1 122.266 35h7.9v3.95a26.988 26.988 0 0 0-11.534 2.291q-4.898 2.291-11.374 8.769L76.446 80.82l36.34 37.92a92.046 92.046 0 0 0 14.062 11.929q7.11 4.819 12.798 5.611v3a32.289 32.289 0 0 1-10.27 1.58z"/><path d="M197.526 184.86a22.747 22.747 0 0 1-14.615-4.98q-6.241-4.974-13.825-17.93l-15.8-26.86h-11.06v48.19h-14.22V97.96q0-8.058-2.212-11.929t-8.848-3.871h-3.16V79h41.08a61.752 61.752 0 0 1 27.255 5.925q12.245 5.925 12.245 22.515 0 21.014-25.28 26.86l16.59 27.65q5.846 9.8 10.507 13.667a19.707 19.707 0 0 0 10.823 4.5v3.163a18.463 18.463 0 0 1-4.029 1.106 30.431 30.431 0 0 1-5.451.474zm-43.45-55.3a28.242 28.242 0 0 0 10.665-2.37 24.078 24.078 0 0 0 9.8-7.426 19.155 19.155 0 0 0 4.025-12.324 20.223 20.223 0 0 0-4.029-12.877c-2.686-3.423 32.285-46.048 28.44-47.68S157.341 84.53 154.076 84.53a48.986 48.986 0 0 0-11.85 1.58v41.87a48.986 48.986 0 0 0 11.85 1.58z"/></svg>