<svg xmlns="http://www.w3.org/2000/svg" width="362.13" height="362.13" viewBox="0 0 362.13 362.13"><path d="M181.065 0C105.533 0 44.084 61.45 44.084 136.981c0 31.155 21.475 76.714 63.827 135.411 30.619 42.436 60.744 75.965 62.011 77.372l11.144 12.367 11.144-12.367c1.267-1.406 31.392-34.936 62.011-77.372 42.352-58.697 63.827-104.255 63.827-135.411C318.047 61.45 256.597 0 181.065 0zm0 316.958C143.332 272.846 74.084 182.486 74.084 136.981 74.084 77.992 122.075 30 181.065 30s106.981 47.992 106.981 106.981c.001 45.505-69.248 135.865-106.981 179.977z"/><circle cx="181.06" cy="136.98" r="49.7"/></svg>