<svg xmlns="http://www.w3.org/2000/svg" width="492.98" height="492.98" viewBox="0 0 492.98 492.98"><path d="M252.281 326.181c.841-2.282 1.78-4.523 2.788-6.749-5.035-7.285-7.74-15.912-7.74-24.951 0-11.776 4.599-22.84 12.883-31.103 8.321-8.345 19.393-12.934 31.178-12.934 9.032 0 17.643 2.703 24.926 7.722 2.232-.995 4.47-1.928 6.764-2.785 3.789-20.46 21.755-36.006 43.303-36.006 4.968 0 9.727.907 14.192 2.436 8.045-6.045 13.324-15.58 13.324-26.416 0-18.308-14.845-33.15-33.149-33.15h-20.186a145.244 145.244 0 0 0-18.194-43.832l14.312-14.301c12.946-12.941 12.946-33.936 0-46.877-12.951-12.947-33.959-12.947-46.88 0l-14.305 14.301a145.003 145.003 0 0 0-43.832-18.193V33.15c0-18.308-14.861-33.15-33.154-33.15-18.318 0-33.15 14.843-33.15 33.15v20.191a144.882 144.882 0 0 0-43.847 18.193l-14.291-14.292c-12.936-12.948-33.943-12.948-46.879 0-12.951 12.942-12.951 33.936 0 46.876l14.291 14.293c-8.3 13.338-14.52 28.075-18.173 43.832H36.257c-18.309 0-33.149 14.843-33.149 33.15s14.841 33.15 33.149 33.15H56.46c3.653 15.759 9.873 30.503 18.194 43.841l-14.313 14.301c-12.951 12.941-12.951 33.935 0 46.877 6.474 6.475 14.955 9.712 23.438 9.712 8.481 0 16.963-3.237 23.441-9.712l14.307-14.301c13.335 8.304 28.066 14.519 43.831 18.186v20.191c0 18.307 14.831 33.15 33.15 33.15 7.641 0 14.602-2.695 20.203-7.05-1.521-4.483-2.445-9.257-2.445-14.251 0-21.536 15.541-39.518 36.015-43.306zm-53.773-64.447c-36.643 0-66.359-29.702-66.359-66.34 0-36.639 29.717-66.34 66.359-66.34 36.632 0 66.334 29.701 66.334 66.34 0 36.638-29.702 66.34-66.334 66.34z"/><path d="M472.452 352.079h-12.303c-2.461-13.393-7.688-25.809-15.121-36.606l8.68-8.667c6.795-6.799 6.795-17.829 0-24.628a17.364 17.364 0 0 0-12.318-5.106c-4.453 0-8.918 1.7-12.318 5.106l-8.679 8.677c-10.776-7.446-23.208-12.666-36.611-15.143v-12.293c0-9.615-7.786-17.408-17.399-17.408-9.613 0-17.399 7.793-17.399 17.408v12.293c-13.403 2.478-25.819 7.697-36.617 15.136l-8.673-8.659a17.359 17.359 0 0 0-12.303-5.108 17.327 17.327 0 0 0-12.318 5.108c-6.815 6.789-6.815 17.819 0 24.618l8.658 8.667a94.695 94.695 0 0 0-15.115 36.606h-12.303c-9.613 0-17.415 7.794-17.415 17.409 0 9.623 7.802 17.417 17.415 17.417h12.303a94.514 94.514 0 0 0 15.131 36.604l-8.674 8.677c-6.815 6.797-6.815 17.821 0 24.618 3.4 3.4 7.848 5.107 12.318 5.107 4.447 0 8.902-1.707 12.303-5.107l8.673-8.666c10.798 7.428 23.214 12.649 36.617 15.125v12.294c0 9.622 7.786 17.417 17.399 17.417 9.613 0 17.399-7.795 17.399-17.417v-12.286c13.403-2.483 25.815-7.705 36.611-15.142l8.679 8.683c3.4 3.4 7.865 5.1 12.318 5.1 4.449 0 8.918-1.699 12.318-5.1 6.795-6.797 6.795-17.829 0-24.626l-8.68-8.677a94.657 94.657 0 0 0 15.121-36.604h12.303c9.613 0 17.415-7.794 17.415-17.417 0-9.616-7.802-17.41-17.415-17.41zm-106.071 53.359c-19.86 0-35.951-16.096-35.951-35.949 0-19.854 16.091-35.951 35.951-35.951s35.946 16.098 35.946 35.951c.001 19.853-16.085 35.949-35.946 35.949z"/></svg>