<svg xmlns="http://www.w3.org/2000/svg" width="496" height="496" viewBox="0 0 496 496"><path fill="#3e3f3f" d="M276.1 176.8h-2.4c-8.8-1.6-14.4-9.6-12.8-18.4l12.8-72C272.1 56 248.1 32 217.7 32s-55.2 24.8-55.2 55.2v2.4l-12.8 73.6c-1.6 8.8-9.6 14.4-18.4 12.8-8.8-1.6-14.4-9.6-12.8-18.4l12.8-72.8c0-46.4 39.2-84.8 86.4-84.8 48 0 87.2 39.2 87.2 87.2v2.4l-12.8 73.6c-1.6 8-8 13.6-16 13.6z"/><path fill="#1d1e1e" d="M273.7 176.8h2.4c8 0 14.4-5.6 16-12.8l11.2-64.8c-8-39.2-43.2-69.6-85.6-69.6-47.2 0-86.4 38.4-87.2 85.6l-9.6 55.2c2.4 3.2 5.6 5.6 9.6 6.4 8.8 1.6 16.8-4 18.4-12.8l12.8-73.6V88c0-30.4 24.8-55.2 55.2-55.2s54.4 24 55.2 53.6l-2.4 14.4c1.6 4.8 2.4 9.6 2.4 15.2l-9.6 55.2c3.2 2.4 6.4 4.8 11.2 5.6z"/><path fill="#0a8ae2" d="M471.3 471.2l-44-324c-1.6-9.6-9.6-19.2-20-19.2H88.9c-9.6 0-18.4 8.8-20 19.2L24.1 472.8c-.8 5.6.8 12 4.8 16s9.6 7.2 15.2 7.2h408c11.2 0 20-8.8 20-20 0-1.6 0-3.2-.8-4.8z"/><g fill="#0078db"><path d="M436.9 217.6l-70.4-70.4-21.6 22.4 72 200.8zm-79.2 64l-21.6 164-134.4-276 21.6-22.4z"/><path d="M144.1 496h308c11.2 0 20-8.8 20-20 0-1.6 0-3.2-.8-4.8l-44-322.4c-1.6-9.6-11.2-16.8-21.6-16.8"/></g><path fill="#2cb4ff" d="M155.3 476c0-1.6 0-3.2-.8-4.8l-44-324c-1.6-9.6-9.6-19.2-20-19.2h-1.6c-9.6 0-18.4 8.8-20 19.2L24.1 472.8c-.8 5.6.8 12 4.8 16s9.6 7.2 15.2 7.2h91.2c11.2 0 20-8.8 20-20z"/><path fill="#009cf2" d="M28.9 487.2c3.2 4.8 9.6 8.8 15.2 8.8h91.2c11.2 0 20-8.8 20-20 0-1.6 0-3.2-.8-4.8l-44-324c-1.6-9.6-9.6-19.2-20-19.2h-2.4"/><path fill="#9bb1ba" d="M356.1 176.8c-7.2 0-14.4-5.6-16-12.8l-12-74.4v-2.4c0-30.4-24.8-55.2-55.2-55.2-30.4 0-54.4 24-55.2 53.6l12.8 72c1.6 8.8-4 16.8-12.8 18.4-8.8 1.6-16.8-4-18.4-12.8l-12.8-73.6v-2.4c0-48 39.2-87.2 87.2-87.2 46.4 0 84.8 38.4 85.6 85.6l12.8 72.8c1.6 8.8-4 16.8-12.8 18.4h-3.2z"/><path fill="#8a98a0" d="M360.1 87.2c-12.8-32.8-44-56-81.6-56-48 0-87.2 39.2-87.2 87.2v2.4l8 47.2c3.2 6.4 9.6 10.4 16.8 8.8 8.8-1.6 14.4-9.6 12.8-18.4l-12.8-72C217.7 56 242.5 32 272.9 32s55.2 24.8 55.2 55.2v2.4l.8 5.6c3.2 7.2 4.8 14.4 4.8 22.4v2.4l8 47.2c2.4 5.6 8 8.8 14.4 8.8h2.4c8.8-1.6 14.4-9.6 12.8-18.4l-11.2-70.4z"/></svg>