<svg xmlns="http://www.w3.org/2000/svg" width="703" height="197" viewBox="0 0 703 197"><path fill="#222" d="M3.332 142.629V85.648h71.144v-3.333H3.332V30.332h75.642V27H0v118.961h79.64v-3.332H3.333zm140.455-82.307L114.3 99.143l-28.828-38.82H81.14l31.16 41.32-34.16 44.317h4l32.156-41.82 32.323 41.82h4.165l-34.323-44.319 31.323-41.32h-4zm16.994 114.963V121.97h.333a34.217 34.217 0 0 0 11.83 18.744q8.83 7.08 22.492 7.081a32.552 32.552 0 0 0 27.075-13.329 45.371 45.371 0 0 0 7-14.329 60.183 60.183 0 0 0 2.416-17.16 60.665 60.665 0 0 0-2.5-17.828 42.675 42.675 0 0 0-7.247-14.162 33.314 33.314 0 0 0-11.5-9.33 33.963 33.963 0 0 0-15.245-3.333 36.975 36.975 0 0 0-12.079 1.916 32.335 32.335 0 0 0-9.913 5.415 36.674 36.674 0 0 0-7.5 8.247 37.979 37.979 0 0 0-4.832 10.414h-.333V60.322h-3.332v114.963h3.332zm34.655-30.657q-15.66 0-25.158-10.746t-9.5-30.907a52.978 52.978 0 0 1 2.333-15.828 40.993 40.993 0 0 1 6.747-13.162 32.4 32.4 0 0 1 10.913-9 31.66 31.66 0 0 1 14.662-3.333 30.524 30.524 0 0 1 14.579 3.333 29.551 29.551 0 0 1 10.33 9.08 42.28 42.28 0 0 1 6.168 13.165 57.993 57.993 0 0 1 2.082 15.745 59.34 59.34 0 0 1-1.916 14.912 42.629 42.629 0 0 1-5.915 13.33 32.193 32.193 0 0 1-10.246 9.663 28.793 28.793 0 0 1-15.079 3.748zm54.816 1.333V97.477a47.25 47.25 0 0 1 2-13.662 33.459 33.459 0 0 1 6.164-11.746 28.889 28.889 0 0 1 10.58-8 32.11 32.11 0 0 1 15.245-2.416v-3.33a41.281 41.281 0 0 0-13.412 1.666 32.571 32.571 0 0 0-9.914 5 25.534 25.534 0 0 0-6.664 7.414 33.151 33.151 0 0 0-3.666 9.08h-.333V60.322h-3.332v85.64h3.332zm38.154-42.153h71.643a59.3 59.3 0 0 0-1.749-16.994 42.268 42.268 0 0 0-6.664-14.495 33.932 33.932 0 0 0-11.83-10.164 36.417 36.417 0 0 0-17.244-3.832 35.067 35.067 0 0 0-25.992 11.746 44.385 44.385 0 0 0-8.33 14.08 53.207 53.207 0 0 0-3.166 18.993 69.658 69.658 0 0 0 2.166 17.744 41.571 41.571 0 0 0 6.664 14.329 30.075 30.075 0 0 0 11.58 9.413q7.08 3.333 17.078 3.166 14.661 0 24.658-8.247t11.83-23.247h-3.332q-2.166 14.163-11.08 21.243t-22.41 7.081q-9.164 0-15.495-3.165A28.074 28.074 0 0 1 296.4 132.8a37.789 37.789 0 0 1-5.914-12.913 69.458 69.458 0 0 1-2.083-16.078zm68.311-3.332h-68.31a51.507 51.507 0 0 1 3.331-16.161 40.064 40.064 0 0 1 7.415-12.246 30.988 30.988 0 0 1 10.663-7.748 32.218 32.218 0 0 1 13.084-2.666 33.112 33.112 0 0 1 14.662 3.083 30.288 30.288 0 0 1 10.58 8.414 37.109 37.109 0 0 1 6.414 12.412 50.7 50.7 0 0 1 2.166 14.912zm72.477-14.828h3.332q0-14.33-8.33-20.827t-22.66-6.5a39.746 39.746 0 0 0-13.5 2 26.983 26.983 0 0 0-9 5.164 18.589 18.589 0 0 0-5 7 20.1 20.1 0 0 0-1.5 7.331q0 7 2.5 11.163a16.446 16.446 0 0 0 7.83 6.5 60.312 60.312 0 0 0 8.331 3q4.665 1.332 10.83 2.831 5.5 1.335 10.83 2.666a39.122 39.122 0 0 1 9.413 3.582 20.348 20.348 0 0 1 6.665 5.749 15.059 15.059 0 0 1 2.582 9.163 16.3 16.3 0 0 1-2.582 9.33 20.815 20.815 0 0 1-6.581 6.249 29.311 29.311 0 0 1-8.914 3.5 44.461 44.461 0 0 1-9.58 1.083q-15.162 0-23.243-6.747t-8.08-21.244h-3.333q0 16.163 8.747 23.66t25.909 7.5a50.605 50.605 0 0 0 11.08-1.25 30.789 30.789 0 0 0 10-4.082 22.591 22.591 0 0 0 7.164-7.33 20.715 20.715 0 0 0 2.75-11 18.509 18.509 0 0 0-2.416-10 20.268 20.268 0 0 0-6.332-6.331 33.58 33.58 0 0 0-8.83-3.915q-4.943-1.424-9.914-2.75-6.117-1.6-12.246-3.165a74.346 74.346 0 0 1-9.746-3.166 16.536 16.536 0 0 1-6.915-5.248q-2.583-3.416-2.582-9.747a22.963 22.963 0 0 1 .666-4.165 14.939 14.939 0 0 1 3.166-6.082 21.315 21.315 0 0 1 7.664-5.5q5.164-2.415 14.162-2.416a44.327 44.327 0 0 1 11.246 1.333 23.381 23.381 0 0 1 8.747 4.249 19.333 19.333 0 0 1 5.665 7.414 27.025 27.025 0 0 1 2 11zm77.141 0h3.332q0-14.33-8.33-20.827t-22.66-6.5a39.74 39.74 0 0 0-13.495 2 26.963 26.963 0 0 0-9 5.164 18.581 18.581 0 0 0-5 7 20.1 20.1 0 0 0-1.5 7.331q0 7 2.5 11.163a16.441 16.441 0 0 0 7.83 6.5 60.344 60.344 0 0 0 8.33 3q4.665 1.332 10.83 2.831 5.5 1.335 10.83 2.666a39.13 39.13 0 0 1 9.414 3.582 20.344 20.344 0 0 1 6.664 5.749 15.053 15.053 0 0 1 2.583 9.163 16.3 16.3 0 0 1-2.583 9.33 20.815 20.815 0 0 1-6.58 6.249 29.316 29.316 0 0 1-8.915 3.5 44.454 44.454 0 0 1-9.58 1.083q-15.162 0-23.242-6.747t-8.081-21.244h-3.332q0 16.163 8.747 23.66t25.908 7.5a50.592 50.592 0 0 0 11.08-1.25 30.8 30.8 0 0 0 10-4.082 22.591 22.591 0 0 0 7.164-7.33 20.715 20.715 0 0 0 2.749-11 18.5 18.5 0 0 0-2.416-10 20.254 20.254 0 0 0-6.331-6.331 33.594 33.594 0 0 0-8.83-3.915q-4.943-1.425-9.914-2.75-6.117-1.6-12.246-3.165a74.314 74.314 0 0 1-9.747-3.166 16.526 16.526 0 0 1-6.914-5.248q-2.583-3.416-2.583-9.747a22.9 22.9 0 0 1 .667-4.165 14.948 14.948 0 0 1 3.165-6.082 21.324 21.324 0 0 1 7.664-5.5q5.166-2.415 14.163-2.416a44.327 44.327 0 0 1 11.246 1.333 23.388 23.388 0 0 1 8.747 4.249 19.333 19.333 0 0 1 5.665 7.414 27.025 27.025 0 0 1 2 11z"/><text fill="#7b7f81" font-family="LucidaGrande-Bold, Lucida Grande" font-size="168" font-weight="700" transform="translate(536 162)"><tspan x="0" y="0">JS</tspan></text></svg>