<svg xmlns="http://www.w3.org/2000/svg" width="495" height="350.7" viewBox="0 0 495 350.7"><path fill="#89d96d" d="M245.91 91.287a17.162 17.162 0 0 1 25.773-14.857 148.078 148.078 0 0 1 50.883-8.7c48.227 0 89.591 21.54 103.574 52.539-.119 7.339-10.545 10.757-14.7 6.253-11.475-24.896-47.689-42.815-88.875-42.815a133.471 133.471 0 0 0-42.345 6.65 17.168 17.168 0 1 1-34.31.934zm192.834 63.878a17.168 17.168 0 1 0-30.641 10.631c-5.484 8.432-14.009 16.069-24.931 22.2-16.87 9.459-38.391 14.671-60.613 14.671-19.242 0-37.715-3.809-53.44-11.028-10.624-4.879-19.46-11.039-26.064-18.132-4.378-2.55-14.5 5.584-10.83 11.783 19.831 20.626 53.466 33.357 90.333 33.357 24.912 0 49.214-5.935 68.429-16.718 14.082-7.9 25.011-18.136 31.886-29.647a17.182 17.182 0 0 0 15.871-17.117z"/><path fill="#999" d="M107.979 187.383C92.32 167.081 83.452 138.434 83.452 107.5c0-28.15 7.425-54.718 20.9-74.814C118.484 11.6 137.6 0 158.173 0c18.747 0 36.629 9.882 50.347 27.819 12.949 16.943 21.374 40.053 23.713 65.084a165.479 165.479 0 0 0-17.163-8.233c-6.644-39.788-30.065-68.7-56.9-68.7-15.082 0-29.488 9.094-40.563 25.614-11.73 17.493-18.2 40.908-18.2 65.925 0 27.5 8.127 53.612 21.924 71.032a17.168 17.168 0 1 1-13.36 8.843zm122.16-84.657c-28.031-16.188-59.308-22.613-85.193-18.1a17.168 17.168 0 1 0 4.855 15.347c21.785-3.219 48.233 2.649 72.35 16.579 29.455 17 50.287 43.4 54.36 67.873a106.372 106.372 0 0 0 16.625 5.345c-1.563-31.794-25.958-65.673-63-87.048zm4.232 132.34c-15.46 1.967-33-.49-50.247-6.942a164.355 164.355 0 0 1-15.711 10.737c18.321 8.412 37.516 12.83 55.321 12.83a100.494 100.494 0 0 0 12.664-.782c21.322-2.709 38.218-12.327 47.935-27.19a147.547 147.547 0 0 1-16.228-4.935c-7.477 8.725-19.194 14.435-33.733 16.283zm-17.1-62.739a17.168 17.168 0 1 0-14.247-7.319 94.606 94.606 0 0 1-14.161 23.209 131.432 131.432 0 0 1-35.913 30.1c-19.613 11.333-40.735 17.414-60.163 17.407-2.027 0-4.04-.066-6.028-.2C66.92 234.2 51.844 226.27 44.3 213.215c-13.367-23.156-.04-57.983 31.038-83.6a164.2 164.2 0 0 1-1.391-17.182l-.881-1.225c-20.246 14.555-35.807 33.34-43.846 52.88-8.507 20.705-8.064 40.987 1.249 57.112 10.287 17.811 29.9 28.568 55.221 30.27q3.487.229 7.048.232c22.222 0 46.167-6.822 68.2-19.546 26.263-15.155 46.425-36.8 56.341-59.825z"/><text fill="#999" font-family="Montserrat-SemiBold, Montserrat" font-size="72" font-weight="600" transform="translate(0 332.699)"><tspan x="0" y="0">REDUX</tspan><tspan y="0" fill="#1f93ef"> </tspan><tspan y="0" fill="#89d96d">SAGA</tspan></text></svg>