<svg xmlns="http://www.w3.org/2000/svg" width="434.59" height="165.56" viewBox="0 0 434.59 165.56"><g id="Group_17" transform="translate(-277.766 -368.911)"><g id="Group_16"><g id="Group_1"><path id="Path_28" fill="#005a9d" d="M24.979-147.766L63.451-49l40.2-105.943L142.119-49l40.865-98.766H207.2L141.162 9.379 103.168-95.32 63.547 9.475.766-147.766z" transform="translate(277 525)"/><path id="Path_1" d="M127.02-109.281h20.805a58.181 58.181 0 0 0-7.446-22.009 54.153 54.153 0 0 0-14.235-15.878 62.4 62.4 0 0 0-19.491-9.636 80.376 80.376 0 0 0-23.214-3.285q-17.958 0-31.865 6.461A65.852 65.852 0 0 0 28.361-136a77.314 77.314 0 0 0-14.126 26.17 104.321 104.321 0 0 0-4.818 32.085 110.258 110.258 0 0 0 4.49 31.974 73.851 73.851 0 0 0 13.468 25.842A62.37 62.37 0 0 0 49.932-2.737Q63.51 3.5 81.687 3.5q30 0 47.3-16.425t20.367-45.99h-20.8a59.666 59.666 0 0 1-3.942 17.958 43.342 43.342 0 0 1-9.089 14.345 41.394 41.394 0 0 1-13.8 9.417A46.416 46.416 0 0 1 83.439-13.8q-14.016 0-24.09-5.256a47.047 47.047 0 0 1-16.535-14.123c-4.307-5.913-31.353-38.142-33.4-46.1s20.8 8.906 20.8 0a90.583 90.583 0 0 1 3.066-23.652 60.967 60.967 0 0 1 9.527-20.257 47.329 47.329 0 0 1 16.433-14.125q9.964-5.256 23.98-5.256 16.425 0 28.361 8.322t15.439 24.966z" transform="translate(563 529)"/><path id="Path_27" fill="#005a9d" d="M66.12-91.2l45.144-56.772V-159.6H8.664v14.592h81.624L46.056-89.6v12.08h11.4c29.64 0 43.092 12.54 43.092 31.692 0 19.836-14.592 32.148-41.04 32.148-20.748 0-39.216-7.752-49.476-18.468l-7.98 13C14.364-6.612 36.48 1.368 59.508 1.368c38.532 0 57.912-20.52 57.912-47.2 0-25.532-17.1-43.544-51.3-45.368z" transform="translate(451 533)"/></g></g></g></svg>