<svg xmlns="http://www.w3.org/2000/svg"><symbol id="phone" viewBox="0 0 32 32"><path d="M22 20c-2 2-2 4-4 4s-4-2-6-4-4-4-4-6 2-2 4-4-4-8-6-8-6 6-6 6c0 4 4.109 12.109 8 16s12 8 16 8c0 0 6-4 6-6s-6-8-8-6z"/></symbol><symbol id="burger-menu" viewBox="0 0 5.33 2.5"><path fill="#47bcfa" d="M0 0h5.33v.5H0zm0 1h5.33v.5H0zm0 1h5.33v.5H0z"/></symbol><symbol id="skype" viewBox="0 0 32 32"><path d="M13.3 1.169c-.05-.031-.106-.056-.156-.081-.056.012-.106.019-.162.031l.319.05zM1.15 13.156a1.84 1.84 0 0 0-.025.162c.031.05.05.1.081.15l-.056-.313zm29.687 5.675c.012-.056.019-.113.031-.169-.031-.05-.05-.1-.081-.15l.05.319zM18.5 30.719c.05.031.106.056.156.081a1.64 1.64 0 0 1 .169-.025l-.325-.056z"/><path d="M30.869 18.663c-.012.056-.019.113-.031.169l-.056-.325c.031.056.056.106.087.156.163-.9.25-1.819.25-2.738a15.067 15.067 0 0 0-4.426-10.687 15.133 15.133 0 0 0-4.8-3.237A15.023 15.023 0 0 0 16.012.813c-.963 0-1.925.088-2.863.269h-.006c.05.025.106.05.156.081l-.319-.05c.056-.012.106-.019.162-.031A8.99 8.99 0 0 0 8.948.032C6.56.032 4.31.963 2.623 2.651S.004 6.588.004 8.976c0 1.519.394 3.019 1.125 4.338a1.84 1.84 0 0 0 .025-.162l.056.319c-.031-.05-.056-.1-.081-.15-.15.856-.225 1.731-.225 2.606a15.072 15.072 0 0 0 4.425 10.681 15.1 15.1 0 0 0 4.806 3.238 15.023 15.023 0 0 0 8.525.95c-.05-.031-.1-.056-.156-.081l.325.056a1.64 1.64 0 0 1-.169.025 8.956 8.956 0 0 0 4.4 1.163c2.387 0 4.637-.931 6.325-2.619s2.619-3.938 2.619-6.325a9.07 9.07 0 0 0-1.137-4.35zm-14.8 6.518c-5.369 0-7.769-2.637-7.769-4.619 0-1.012.75-1.725 1.781-1.725 2.3 0 1.7 3.3 5.988 3.3 2.194 0 3.406-1.194 3.406-2.413 0-.731-.363-1.544-1.806-1.9l-4.775-1.194c-3.844-.963-4.544-3.044-4.544-5 0-4.056 3.819-5.581 7.406-5.581 3.306 0 7.2 1.825 7.2 4.263 0 1.044-.906 1.65-1.938 1.65-1.962 0-1.6-2.713-5.55-2.713-1.963 0-3.044.887-3.044 2.156s1.55 1.675 2.894 1.981l3.538.787c3.869.863 4.85 3.125 4.85 5.25 0 3.294-2.531 5.756-7.637 5.756z"/></symbol><symbol id="paperplane" viewBox="0 0 32 32"><path d="M31.543.16a1.002 1.002 0 0 0-1.098.008l-30 20a.995.995 0 0 0-.439.936.995.995 0 0 0 .623.824l7.824 3.131 3.679 6.438a1 1 0 0 0 .857.504H13c.351 0 .677-.186.857-.486l2.077-3.463 9.695 3.877a.992.992 0 0 0 .861-.058c.264-.148.445-.408.496-.707l5-30A1.002 1.002 0 0 0 31.543.16zM3.136 20.777L26.311 5.326 9.461 23.363c-.089-.053-.168-.123-.266-.162l-6.059-2.424zm7.053 3.289l-.007-.01L29.125 3.781 12.976 28.943l-2.787-4.877zm15.028 5.543l-8.541-3.416a1.987 1.987 0 0 0-.623-.119L29.205 5.686l-3.988 23.923z"/></symbol><symbol id="linkedin" viewBox="0 0 32 32"><path d="M29 0H3C1.35 0 0 1.35 0 3v26c0 1.65 1.35 3 3 3h26c1.65 0 3-1.35 3-3V3c0-1.65-1.35-3-3-3zM12 26H8V12h4v14zm-2-16c-1.106 0-2-.894-2-2s.894-2 2-2c1.106 0 2 .894 2 2s-.894 2-2 2zm16 16h-4v-8c0-1.106-.894-2-2-2s-2 .894-2 2v8h-4V12h4v2.481C18.825 13.35 20.087 12 21.5 12c2.488 0 4.5 2.238 4.5 5v9z"/></symbol><symbol id="education" viewBox="0 0 32 32"><path d="M5.328 12.8L16 19.2l16-9.6L16 0 0 9.6h16v3.2H5.328zM0 12.8v12.8l3.2-3.552V14.72L0 12.8zM16 32L4.8 25.28v-9.6L16 22.4l11.2-6.72v9.6L16 32z"/></symbol><symbol id="envelop" viewBox="0 0 32 32"><path fill="#fff" d="M0 0h32v32H0z"/><path fill="#e91e63" d="M29 4H3C1.35 4 0 5.35 0 7v20c0 1.65 1.35 3 3 3h26c1.65 0 3-1.35 3-3V7c0-1.65-1.35-3-3-3zM12.461 17.199L4 23.789V8.113l8.461 9.086zM5.512 8h20.976L16 15.875 5.512 8zm7.278 9.553L16 21l3.21-3.447L25.79 26H6.211l6.58-8.447zm6.749-.354L28 8.113v15.676l-8.461-6.59z"/></symbol><symbol id="adobe-xd" viewBox="0 0 257 306"><path fill="#2e001e" d="M16 10h220v214H16z"/><path fill="#ff2bc2" d="M6 0v234h240V0zm10 10h220v214H16z"/><path fill="#ff2bc2" d="M180.3 98.3a13.731 13.731 0 0 0-5.8-1c-12.6 0-21 9.7-21 25.8 0 18.4 8.6 25.8 19.8 25.8a18.866 18.866 0 0 0 6.9-1.1V98.3zm-44.8 25.6c0-23.3 15-41.5 39.6-41.5a44.345 44.345 0 0 1 5.2.2v-26a1 1 0 0 1 1-1h16.1c.8 0 1 .3 1 .8v91.4a71.228 71.228 0 0 0 .5 9.8c0 .7 0 .8-.6 1.1a59.567 59.567 0 0 1-25.6 5.8c-21.7 0-37.2-13.4-37.2-40.6zm-34.1-16.2l28 54.3c.5.8.2 1.6-.6 1.6h-17.4a1.962 1.962 0 0 1-2.1-1.3q-9.6-19.8-19.6-41.1h-.2c-6 13.4-12.6 28-19 41.2a1.92 1.92 0 0 1-1.8 1.1H52.1c-1 0-1.1-.8-.6-1.4l27.4-52.7L52.4 57a.885.885 0 0 1 .7-1.5h17.2c1 0 1.5.2 1.8 1.1C78.4 69.9 84.8 83 90.8 96.4h.2c5.8-13.2 12.2-26.5 18.3-39.6.5-.8.8-1.3 1.8-1.3h16.1c.8 0 1.1.6.6 1.5l-26.4 50.7z"/><text fill="#fd2bc2" font-family="Montserrat-Bold, Montserrat" font-size="45" font-weight="700" transform="translate(1 295)"><tspan x="0" y="0">ADOBE XD</tspan></text></symbol><symbol id="css" viewBox="0 0 1771 2499.8"><path fill="#131313" d="M1387.8 92.5h-146.9l152.8 165.9v78.9h-314.8v-92.4h152.8L1078.9 79V0h309zm-371.4 0H869.3l153 165.9v78.9H707.4v-92.4h152.8L707.4 79V0h309zm-367.8 3.8H490.1v144.8h158.5v96.3H377.3V0h271.3z"/><path fill="#1572b6" d="M161.2 2299.1L0 491.4h1771l-161.4 1807.4-725.2 201z"/><path fill="#33a9dc" d="M885.5 2346.2l586-162.5 137.8-1544.5H885.5z"/><path fill="#fff" d="M885.5 1294.1h293.4l20.2-227H885.5V845.5h556l-5.3 59.5-54.5 611H885.5z"/><path fill="#ebebeb" d="M886.7 1869.9h-1l-246.9-66.7-15.8-176.8H400.6l31.1 348.1 454.2 126.4h1.3v-231z"/><path fill="#fff" d="M1160.1 1506.3l-26.7 296.7-247.3 66.7v231l454.5-126 3.3-37.5 38.6-431h-222.4z"/><path fill="#ebebeb" d="M886.3 845.5v221.7H350.9l-4.6-49.8L336.2 905l-5.3-59.5zm-.8 448.6v221.7H641.4l-4.3-49.8-10.1-112.4-5.3-59.5h263.7z"/></symbol><symbol id="circleci" viewBox="0 0 777 258.02"><g fill="#343434" transform="translate(-.835)"><circle cx="30.59" cy="30.59" r="30.59" transform="translate(95.57 98.42)"/><path d="M1.2 96.572c0 .368-.369 1.105-.369 1.474a6.213 6.213 0 0 0 6.269 6.266h51.973a6.036 6.036 0 0 0 5.529-3.686 67.269 67.269 0 1 1 0 56.4c-1.106-2.58-2.949-4.055-5.53-4.055H7.1a6.213 6.213 0 0 0-6.267 6.267 2.215 2.215 0 0 0 .369 1.474c14.375 56.026 64.872 97.309 124.953 97.309A129.008 129.008 0 1 0 126.157 0C66.077 0 15.579 41.283 1.2 96.572z"/></g><text fill="#535151" font-family="Montserrat-Bold, Montserrat" font-size="135" font-weight="700" transform="translate(274 178)"><tspan x="0" y="0">circleci</tspan></text></symbol><symbol id="bootstrap" viewBox="0 0 256 256"><path fill="#563D7C" d="M0 222.991C0 241.223 14.779 256 33.009 256H222.99c18.233 0 33.01-14.779 33.01-33.009V33.01C256 14.777 241.221 0 222.991 0H33.01C14.777 0 0 14.779 0 33.009V222.99z"/><path fill="#FFF" d="M106.158 113.238V76.985h31.911c3.04 0 5.97.253 8.792.76 2.822.506 5.319 1.41 7.49 2.713 2.17 1.303 3.907 3.112 5.21 5.427 1.302 2.316 1.954 5.283 1.954 8.9 0 6.513-1.954 11.217-5.862 14.111-3.907 2.895-8.9 4.342-14.979 4.342h-34.516zM72.075 50.5v155h75.112c6.947 0 13.713-.868 20.298-2.605 6.585-1.737 12.446-4.414 17.584-8.032 5.137-3.618 9.226-8.286 12.265-14.002 3.04-5.717 4.559-12.483 4.559-20.298 0-9.697-2.352-17.982-7.055-24.856-4.704-6.875-11.832-11.687-21.384-14.437 6.947-3.328 12.194-7.598 15.74-12.808 3.545-5.21 5.318-11.722 5.318-19.538 0-7.236-1.194-13.314-3.582-18.235-2.388-4.92-5.753-8.864-10.095-11.831-4.341-2.967-9.551-5.102-15.63-6.404-6.078-1.303-12.808-1.954-20.189-1.954H72.075zm34.083 128.515v-42.549h37.121c7.381 0 13.315 1.7 17.802 5.102 4.486 3.401 6.73 9.081 6.73 17.041 0 4.053-.688 7.381-2.063 9.986-1.375 2.605-3.22 4.668-5.536 6.187-2.315 1.52-4.993 2.605-8.032 3.257-3.04.65-6.223.976-9.552.976h-36.47z"/></symbol><symbol id="git" viewBox="0 0 256 108"><path fill="#2F2707" d="M152.984 37.214c-5.597 0-9.765 2.748-9.765 9.362 0 4.983 2.747 8.443 9.463 8.443 5.693 0 9.56-3.355 9.56-8.65 0-6-3.46-9.155-9.258-9.155zm-11.19 46.701c-1.325 1.625-2.645 3.353-2.645 5.39 0 4.067 5.186 5.291 12.31 5.291 5.9 0 13.938-.414 13.938-5.9 0-3.261-3.867-3.462-8.753-3.768l-14.85-1.013zm30.113-46.394c1.828 2.34 3.764 5.597 3.764 10.276 0 11.292-8.851 17.904-21.667 17.904-3.259 0-6.209-.406-8.038-.914l-3.359 5.39 9.969.61c17.602 1.122 27.975 1.632 27.975 15.157 0 11.702-10.272 18.311-27.975 18.311-18.413 0-25.433-4.68-25.433-12.716 0-4.578 2.035-7.015 5.596-10.378-3.358-1.419-4.476-3.961-4.476-6.71 0-2.24 1.118-4.273 2.952-6.208 1.83-1.93 3.864-3.865 6.306-6.103-4.984-2.442-8.75-7.732-8.75-15.262 0-11.697 7.733-19.731 23.295-19.731 4.376 0 7.022.402 9.362 1.017h19.84v8.644l-9.361.713zm27.259-18.487c-5.8 0-9.157-3.36-9.157-9.161 0-5.793 3.356-8.95 9.157-8.95 5.9 0 9.258 3.157 9.258 8.95 0 5.801-3.357 9.161-9.258 9.161zM186.04 80.171v-8.033l5.19-.71c1.425-.205 1.627-.509 1.627-2.038V39.48c0-1.116-.304-1.832-1.325-2.134l-5.492-1.935 1.118-8.238h21.061V69.39c0 1.63.098 1.833 1.629 2.039l5.188.71v8.032H186.04zm69.227-3.944c-4.376 2.135-10.785 4.068-16.586 4.068-12.106 0-16.682-4.878-16.682-16.38V37.264c0-.61 0-1.017-.817-1.017h-7.12V27.19c8.955-1.02 12.513-5.496 13.632-16.585h9.666v14.45c0 .71 0 1.017.815 1.017h14.343v10.173H237.36v24.313c0 6.002 1.426 8.34 6.917 8.34 2.852 0 5.799-.71 8.24-1.626l2.75 8.954"/><path fill="#DE4C36" d="M104.529 49.53L58.013 3.017a6.86 6.86 0 0 0-9.703 0l-9.659 9.66 12.253 12.252a8.145 8.145 0 0 1 8.383 1.953 8.157 8.157 0 0 1 1.936 8.434L73.03 47.125c2.857-.984 6.154-.347 8.435 1.938a8.161 8.161 0 0 1 0 11.545 8.164 8.164 0 0 1-13.324-8.88L57.129 40.716l-.001 28.98a8.248 8.248 0 0 1 2.159 1.544 8.164 8.164 0 0 1 0 11.547c-3.19 3.19-8.36 3.19-11.545 0a8.164 8.164 0 0 1 2.672-13.328v-29.25a8.064 8.064 0 0 1-2.672-1.782c-2.416-2.413-2.997-5.958-1.759-8.925l-12.078-12.08L2.011 49.314a6.863 6.863 0 0 0 0 9.706l46.516 46.514a6.862 6.862 0 0 0 9.703 0l46.299-46.297a6.866 6.866 0 0 0 0-9.707"/></symbol><symbol id="docker" viewBox="0 0 256 215"><g fill="none" fill-rule="evenodd"><path fill="#364548" d="M38.617 173.984v-16.362c0-2.15 1.344-3.877 3.57-3.877h.616c2.225 0 3.563 1.729 3.563 3.877v34.447c0 8.4-4.15 15.084-11.382 19.342a21.374 21.374 0 0 1-10.945 2.985h-1.537c-8.402 0-15.077-4.153-19.342-11.38a21.314 21.314 0 0 1-2.984-10.947v-1.535c0-8.403 4.152-15.083 11.378-19.349a21.298 21.298 0 0 1 10.948-2.985h1.537c5.686 0 10.51 2.204 14.578 5.784zM7.924 191.3c0 6.068 2.941 10.63 8.258 13.54 2.15 1.176 4.484 1.808 6.937 1.808 5.956 0 10.374-2.81 13.421-7.857 1.417-2.348 2.077-4.917 2.077-7.648 0-5.26-2.49-9.365-6.729-12.414-2.57-1.848-5.463-2.775-8.618-2.775-6.492 0-11.164 3.28-13.968 9.106-.946 1.97-1.378 4.061-1.378 6.24zm65.324-23.1h1.074c8.978 0 15.806 4.355 20.133 12.192 1.73 3.135 2.656 6.557 2.656 10.142v1.535c0 8.4-4.142 15.093-11.385 19.343a21.425 21.425 0 0 1-10.943 2.984h-1.535c-8.402 0-15.079-4.153-19.342-11.38a21.316 21.316 0 0 1-2.987-10.947v-1.535c0-8.404 4.169-15.062 11.377-19.347 3.351-1.991 7.058-2.987 10.952-2.987zm-14.58 23.1c0 5.89 2.89 10.223 7.865 13.27 2.336 1.43 4.909 2.078 7.638 2.078 5.82 0 10.122-2.951 13.116-7.863 1.428-2.342 2.074-4.915 2.074-7.642 0-5.477-2.638-9.661-7.148-12.693-2.471-1.663-5.222-2.496-8.198-2.496-6.492 0-11.164 3.28-13.967 9.106-.948 1.97-1.38 4.061-1.38 6.24zm70.656-14.727c-1.17-.548-3.36-.73-4.624-.778-6.474-.244-11.158 3.402-13.906 9.113-.949 1.97-1.382 4.055-1.382 6.235 0 6.637 3.485 11.284 9.409 14.117 2.164 1.034 4.958 1.23 7.323 1.23 2.08 0 5.02-1.274 6.866-2.151l.32-.152h1.433l.158.032c1.762.367 3.092 1.484 3.092 3.38v.767c0 4.718-8.622 5.798-11.912 6.028-11.61.803-20.293-5.573-23.603-16.647-.575-1.923-.834-3.833-.834-5.837v-1.533c0-8.403 4.17-15.059 11.377-19.34 3.351-1.99 7.057-2.99 10.95-2.99h1.536c4.13 0 7.934 1.173 11.344 3.502l.28.194.177.292c.368.61.685 1.316.685 2.042v.767c0 1.978-1.48 3.042-3.266 3.386l-.148.026h-.458c-1.156 0-3.785-1.197-4.817-1.683zm25.134 5.247c3.01-3.014 6.03-6.022 9.085-8.986.851-.827 4.074-4.327 5.343-4.327h1.388l.158.033c1.768.367 3.092 1.486 3.092 3.386v.766c0 1.296-1.518 2.802-2.355 3.689-1.78 1.887-3.654 3.712-5.476 5.56l-9.362 9.504c4.031 4.04 8.058 8.083 12.056 12.154a313.304 313.304 0 0 1 3.301 3.396c.385.405.953.909 1.276 1.47.347.526.56 1.119.56 1.752v.8l-.045.185c-.435 1.768-1.557 3.194-3.516 3.194h-.617c-1.282 0-2.73-1.45-3.608-2.279-1.81-1.706-3.557-3.5-5.331-5.243l-5.949-5.84v9.334c0 2.15-1.346 3.878-3.569 3.878h-.61c-2.226 0-3.57-1.728-3.57-3.878v-52.596c0-2.15 1.345-3.87 3.57-3.87h.61c2.223 0 3.569 1.72 3.569 3.87v24.048zm96.577-13.313h.77c2.324 0 3.875 1.566 3.875 3.877 0 3.208-3.067 4.029-5.72 4.029-3.48 0-6.803 2.107-9.202 4.47-2.991 2.949-4.3 6.726-4.3 10.878v18.759c0 2.15-1.343 3.876-3.57 3.876h-.612c-2.227 0-3.569-1.725-3.569-3.876v-19.836c0-7.617 3.708-13.835 9.89-18.196 3.691-2.605 7.919-3.98 12.438-3.98zm-55.074 37.176c2.82.985 6.035.844 8.928.34 1.48-.629 5.264-2.28 6.656-2.038l.217.037.2.098c.85.412 1.661.995 2.095 1.86 1.014 2.027.527 4.065-1.465 5.216l-.663.383c-7.35 4.242-15.168 3.654-22.495-.308-3.503-1.894-6.183-4.705-8.16-8.132l-.462-.801c-4.719-8.172-4.082-16.768 1.24-24.539 1.837-2.686 4.238-4.761 7.045-6.384l1.062-.613c6.922-3.996 14.341-3.722 21.45-.215 3.823 1.886 6.92 4.697 9.054 8.394l.384.666c1.55 2.686-.458 5.026-2.531 6.626-2.406 1.856-4.835 4.09-7.141 6.08-5.142 4.439-10.276 8.888-15.414 13.33zm-6.655-4.674c5.75-4.93 11.502-9.865 17.237-14.816 1.96-1.69 4.109-3.444 6.053-5.221-1.56-1.966-4.166-3.383-6.38-4.228-4.47-1.703-8.877-1.131-12.976 1.235-5.365 3.098-7.65 8.031-7.45 14.17.08 2.418.73 4.748 2.013 6.805.452.725.957 1.406 1.503 2.055zM147.488 45.732h22.866v23.375h11.561c5.34 0 10.831-.951 15.887-2.664 2.485-.843 5.273-2.015 7.724-3.49-3.228-4.214-4.876-9.535-5.36-14.78-.66-7.135.78-16.421 5.608-22.005l2.404-2.78 2.864 2.303c7.211 5.793 13.276 13.889 14.345 23.118 8.683-2.554 18.878-1.95 26.531 2.467l3.14 1.812-1.652 3.226C246.933 68.946 233.4 72.86 220.17 72.167c-19.797 49.309-62.898 72.653-115.157 72.653-27 0-51.77-10.093-65.876-34.047l-.231-.39-2.055-4.182c-4.768-10.544-6.352-22.095-5.278-33.637l.323-3.457H51.45V45.732h22.865V22.866h45.733V0h27.44v45.732"/><path fill="#22A0C8" d="M221.57 54.38c1.533-11.916-7.384-21.275-12.914-25.719-6.373 7.368-7.363 26.678 2.635 34.808-5.58 4.956-17.337 9.448-29.376 9.448H35.37c-1.17 12.567 1.036 24.14 6.075 34.045l1.667 3.05a56.536 56.536 0 0 0 3.455 5.184c6.025.387 11.58.52 16.662.408h.002c9.987-.22 18.136-1.4 24.312-3.54a1.761 1.761 0 0 1 1.153 3.326c-.822.286-1.678.552-2.562.805h-.003c-4.863 1.389-10.078 2.323-16.806 2.738.4.007-.416.06-.418.06-.229.015-.517.048-.747.06-2.648.149-5.506.18-8.428.18-3.196 0-6.343-.06-9.862-.24l-.09.06c12.21 13.724 31.302 21.955 55.234 21.955 50.648 0 93.608-22.452 112.632-72.857 13.496 1.385 26.467-2.057 32.367-13.575-9.398-5.423-21.484-3.694-28.443-.196"/><path fill="#37B1D9" d="M221.57 54.38c1.533-11.916-7.384-21.275-12.914-25.719-6.373 7.368-7.363 26.678 2.635 34.808-5.58 4.956-17.337 9.448-29.376 9.448H44.048c-.598 19.246 6.544 33.855 19.18 42.687h.003c9.987-.22 18.136-1.4 24.312-3.54a1.761 1.761 0 0 1 1.153 3.326c-.822.286-1.678.552-2.562.805h-.003c-4.863 1.389-10.526 2.443-17.254 2.858-.002 0-.163-.155-.165-.155 17.237 8.842 42.23 8.81 70.885-2.197 32.13-12.344 62.029-35.86 82.89-62.757-.314.142-.62.287-.917.436"/><path fill="#1B81A5" d="M35.645 88.186c.91 6.732 2.88 13.035 5.8 18.776l1.667 3.05a56.432 56.432 0 0 0 3.455 5.184c6.026.387 11.581.52 16.664.408 9.987-.22 18.136-1.4 24.312-3.54a1.761 1.761 0 0 1 1.153 3.326c-.822.286-1.678.552-2.562.805h-.003c-4.863 1.389-10.496 2.383-17.224 2.799-.231.014-.634.017-.867.03-2.646.148-5.475.239-8.398.239-3.195 0-6.463-.061-9.98-.24 12.21 13.724 31.42 21.985 55.352 21.985 43.36 0 81.084-16.458 102.979-52.822H35.645"/><path fill="#1D91B4" d="M45.367 88.186c2.592 11.82 8.821 21.099 17.864 27.418 9.987-.22 18.136-1.4 24.312-3.54a1.761 1.761 0 0 1 1.153 3.326c-.822.286-1.678.552-2.562.805h-.003c-4.863 1.389-10.615 2.383-17.344 2.799 17.236 8.84 42.157 8.713 70.81-2.293 17.334-6.66 34.017-16.574 48.984-28.515H45.367"/><path fill="#23A3C2" d="M55.26 49.543h19.818v19.818H55.26V49.543zm1.651 1.652h1.564V67.71h-1.564V51.195zm2.94 0h1.627V67.71h-1.626V51.195zm3.002 0h1.627V67.71h-1.627V51.195zm3.004 0h1.626V67.71h-1.626V51.195zm3.003 0h1.626V67.71H68.86V51.195zm3.002 0h1.565V67.71h-1.565V51.195zm6.264-24.518h19.819v19.817h-19.82V26.677zm1.652 1.652h1.563v16.514h-1.563V28.329zm2.94 0h1.626v16.514h-1.625V28.329zm3.002 0h1.626v16.514H85.72V28.329zm3.003 0h1.626v16.514h-1.626V28.329zm3.003 0h1.627v16.514h-1.627V28.329zm3.002 0h1.566v16.514h-1.566V28.329z"/><path fill="#34BBDE" d="M78.126 49.543h19.819v19.818h-19.82V49.543zm1.652 1.652h1.563V67.71h-1.563V51.195zm2.94 0h1.626V67.71h-1.625V51.195zm3.002 0h1.626V67.71H85.72V51.195zm3.003 0h1.626V67.71h-1.626V51.195zm3.003 0h1.627V67.71h-1.627V51.195zm3.002 0h1.566V67.71h-1.566V51.195z"/><path fill="#23A3C2" d="M100.993 49.543h19.818v19.818h-19.818V49.543zm1.651 1.652h1.563V67.71h-1.563V51.195zm2.94 0h1.626V67.71h-1.626V51.195zm3.003 0h1.626V67.71h-1.626V51.195zm3.003 0h1.626V67.71h-1.626V51.195zm3.002 0h1.628V67.71h-1.628V51.195zm3.003 0h1.564V67.71h-1.564V51.195z"/><path fill="#34BBDE" d="M100.993 26.677h19.818v19.817h-19.818V26.677zm1.651 1.652h1.563v16.514h-1.563V28.329zm2.94 0h1.626v16.514h-1.626V28.329zm3.003 0h1.626v16.514h-1.626V28.329zm3.003 0h1.626v16.514h-1.626V28.329zm3.002 0h1.628v16.514h-1.628V28.329zm3.003 0h1.564v16.514h-1.564V28.329zm6.264 21.214h19.818v19.818h-19.818V49.543zm1.652 1.652h1.563V67.71h-1.563V51.195zm2.94 0h1.626V67.71h-1.626V51.195zm3.002 0h1.626V67.71h-1.626V51.195zm3.003 0h1.627V67.71h-1.627V51.195zm3.003 0h1.627V67.71h-1.627V51.195zm3.003 0h1.564V67.71h-1.564V51.195z"/><path fill="#23A3C2" d="M123.859 26.677h19.818v19.817h-19.818V26.677zm1.652 1.652h1.563v16.514h-1.563V28.329zm2.94 0h1.626v16.514h-1.626V28.329zm3.002 0h1.626v16.514h-1.626V28.329zm3.003 0h1.627v16.514h-1.627V28.329zm3.003 0h1.627v16.514h-1.627V28.329zm3.003 0h1.564v16.514h-1.564V28.329z"/><path fill="#34BBDE" d="M123.859 3.81h19.818v19.82h-19.818V3.81zm1.652 1.651h1.563v16.516h-1.563V5.46zm2.94 0h1.626v16.516h-1.626V5.46zm3.002 0h1.626v16.516h-1.626V5.46zm3.003 0h1.627v16.516h-1.627V5.46zm3.003 0h1.627v16.516h-1.627V5.46zm3.003 0h1.564v16.516h-1.564V5.46z"/><path fill="#23A3C2" d="M146.725 49.543h19.818v19.818h-19.818V49.543zm1.65 1.652h1.565V67.71h-1.564V51.195zm2.94 0h1.627V67.71h-1.626V51.195zm3.004 0h1.627V67.71h-1.627V51.195zm3.002 0h1.627V67.71h-1.627V51.195zm3.004 0h1.626V67.71h-1.626V51.195zm3.002 0h1.564V67.71h-1.564V51.195z"/><path fill="#D3ECEC" d="M96.704 101.492a5.468 5.468 0 1 1-.002 10.935 5.468 5.468 0 0 1 .002-10.935"/><path fill="#364548" d="M96.704 103.043c.5 0 .977.094 1.417.265a1.598 1.598 0 0 0 .798 2.98c.605 0 1.13-.335 1.402-.831a3.915 3.915 0 1 1-3.617-2.414M0 90.162h254.327c-5.537-1.404-17.52-3.302-15.544-10.56-10.07 11.652-34.353 8.175-40.482 2.43-6.824 9.898-46.554 6.135-49.325-1.576-8.556 10.041-35.067 10.041-43.623 0-2.773 7.711-42.502 11.474-49.327 1.575-6.128 5.746-30.41 9.223-40.48-2.428C17.522 86.86 5.539 88.758 0 90.163"/><path fill="#BDD9D7" d="M111.237 140.89c-13.54-6.425-20.971-15.16-25.106-24.694-5.03 1.435-11.075 2.353-18.1 2.747-2.646.148-5.43.224-8.35.224-3.368 0-6.917-.1-10.643-.297 12.417 12.41 27.692 21.964 55.976 22.138 2.088 0 4.16-.04 6.223-.118"/><path fill="#D3ECEC" d="M91.16 124.994c-1.873-2.543-3.69-5.739-5.026-8.8-5.03 1.437-11.077 2.355-18.103 2.75 4.826 2.619 11.727 5.046 23.13 6.05"/></g></symbol><symbol id="eslint" viewBox="0 0 568.68 224.88"><path fill="#8080f2" d="M77.965 80.568l48.57-28.042a3.929 3.929 0 0 1 3.93 0l48.57 28.042a3.932 3.932 0 0 1 1.965 3.4v56.084a3.934 3.934 0 0 1-1.965 3.4l-48.57 28.048a3.929 3.929 0 0 1-3.93 0l-48.57-28.042a3.931 3.931 0 0 1-1.965-3.4V83.97a3.935 3.935 0 0 1 1.965-3.4"/><path fill="#4b32c3" d="M254.417 107.417L196.323 6.35A12.246 12.246 0 0 0 186.1 0H69.906a12.249 12.249 0 0 0-10.23 6.35L1.583 107.194a12.02 12.02 0 0 0 0 11.923l58.093 100.239a11.471 11.471 0 0 0 10.23 5.522h116.188a11.418 11.418 0 0 0 10.228-5.467l58.094-100.4a11.4 11.4 0 0 0 0-11.592zm-48.1 48.6a4.261 4.261 0 0 1-2.182 3.6l-74 42.693a4.21 4.21 0 0 1-4.186 0l-74.06-42.689a4.268 4.268 0 0 1-2.188-3.6V70.628a4.253 4.253 0 0 1 2.176-3.6l74-42.694a4.2 4.2 0 0 1 4.185 0l74.06 42.694a4.269 4.269 0 0 1 2.2 3.6v85.388z"/><path d="M285.878 76.886V149h50.1v-8.08h-40.5v-24.947h37.466v-8.08h-37.471V84.966h40.2v-8.08zM389.3 97.995h9.09a25.421 25.421 0 0 0-2.272-10.252 19.975 19.975 0 0 0-5.656-7.12 23.33 23.33 0 0 0-8.333-4.141 38.533 38.533 0 0 0-10.3-1.313 36.992 36.992 0 0 0-9.645 1.262 26.52 26.52 0 0 0-8.384 3.839 19.426 19.426 0 0 0-5.909 6.565 19.107 19.107 0 0 0-2.222 9.443 15.769 15.769 0 0 0 1.969 8.232 15.967 15.967 0 0 0 5.252 5.353 30.523 30.523 0 0 0 7.425 3.337q4.141 1.263 8.433 2.222t8.434 1.868a38.449 38.449 0 0 1 7.424 2.374 14.473 14.473 0 0 1 5.252 3.787 9.049 9.049 0 0 1 1.969 6.06 11.8 11.8 0 0 1-1.616 6.464 11.761 11.761 0 0 1-4.242 3.989 19.193 19.193 0 0 1-5.908 2.071 35.821 35.821 0 0 1-6.515.606 30.825 30.825 0 0 1-7.878-1.01 19.6 19.6 0 0 1-6.717-3.131 16.071 16.071 0 0 1-4.646-5.4 16.288 16.288 0 0 1-1.767-7.828h-9.09a25.359 25.359 0 0 0 2.373 11.363 21.786 21.786 0 0 0 6.464 7.878 28.31 28.31 0 0 0 9.494 4.587 42.283 42.283 0 0 0 11.464 1.516 43.841 43.841 0 0 0 9.948-1.162 28.79 28.79 0 0 0 9.039-3.737 21.2 21.2 0 0 0 6.616-6.666 18.107 18.107 0 0 0 2.576-9.847 18.085 18.085 0 0 0-1.969-8.888 17.546 17.546 0 0 0-5.252-5.858 27.817 27.817 0 0 0-7.424-3.687q-4.141-1.364-8.433-2.374t-8.434-1.868a44.162 44.162 0 0 1-7.424-2.171 14.6 14.6 0 0 1-5.252-3.383 7.517 7.517 0 0 1-1.969-5.4 11.712 11.712 0 0 1 1.363-5.909 10.6 10.6 0 0 1 3.636-3.788 15.823 15.823 0 0 1 5.2-2.02 29.335 29.335 0 0 1 5.959-.606q7.474 0 12.271 3.484t5.606 11.259zm23.735-21.109V149h47.775v-8.08h-38.178V76.886zm63.832 10.5v-10.5h-8.585v10.5zm-8.585 9.393V149h8.585V96.783zm21.917 0V149h8.585v-29.492a21.153 21.153 0 0 1 .96-6.515 14.8 14.8 0 0 1 2.878-5.2 12.783 12.783 0 0 1 4.8-3.434 17.5 17.5 0 0 1 6.818-1.212 10.509 10.509 0 0 1 7.777 2.828 10.372 10.372 0 0 1 2.828 7.676V149h8.585v-34.34a32.312 32.312 0 0 0-.859-7.727 14.633 14.633 0 0 0-2.979-6.009 14.115 14.115 0 0 0-5.555-3.939 22.66 22.66 0 0 0-8.585-1.414q-11.615 0-16.968 9.494h-.2v-8.282zm68.074 0V81.128h-8.583v15.655h-8.89v7.575h8.888v33.229a19.84 19.84 0 0 0 .707 5.858 7.122 7.122 0 0 0 2.172 3.434 8.383 8.383 0 0 0 3.838 1.667 30.827 30.827 0 0 0 5.708.454h6.565v-7.575h-3.939a28.632 28.632 0 0 1-3.283-.151 4.24 4.24 0 0 1-1.97-.656 2.5 2.5 0 0 1-.96-1.414 9.368 9.368 0 0 1-.253-2.424v-32.422h10.4v-7.575z"/></symbol><symbol id="expressjs" viewBox="0 0 703 197"><path fill="#222" d="M3.332 142.629V85.648h71.144v-3.333H3.332V30.332h75.642V27H0v118.961h79.64v-3.332H3.333zm140.455-82.307L114.3 99.143l-28.828-38.82H81.14l31.16 41.32-34.16 44.317h4l32.156-41.82 32.323 41.82h4.165l-34.323-44.319 31.323-41.32h-4zm16.994 114.963V121.97h.333a34.217 34.217 0 0 0 11.83 18.744q8.83 7.08 22.492 7.081a32.552 32.552 0 0 0 27.075-13.329 45.371 45.371 0 0 0 7-14.329 60.183 60.183 0 0 0 2.416-17.16 60.665 60.665 0 0 0-2.5-17.828 42.675 42.675 0 0 0-7.247-14.162 33.314 33.314 0 0 0-11.5-9.33 33.963 33.963 0 0 0-15.245-3.333 36.975 36.975 0 0 0-12.079 1.916 32.335 32.335 0 0 0-9.913 5.415 36.674 36.674 0 0 0-7.5 8.247 37.979 37.979 0 0 0-4.832 10.414h-.333V60.322h-3.332v114.963h3.332zm34.655-30.657q-15.66 0-25.158-10.746t-9.5-30.907a52.978 52.978 0 0 1 2.333-15.828 40.993 40.993 0 0 1 6.747-13.162 32.4 32.4 0 0 1 10.913-9 31.66 31.66 0 0 1 14.662-3.333 30.524 30.524 0 0 1 14.579 3.333 29.551 29.551 0 0 1 10.33 9.08 42.28 42.28 0 0 1 6.168 13.165 57.993 57.993 0 0 1 2.082 15.745 59.34 59.34 0 0 1-1.916 14.912 42.629 42.629 0 0 1-5.915 13.33 32.193 32.193 0 0 1-10.246 9.663 28.793 28.793 0 0 1-15.079 3.748zm54.816 1.333V97.477a47.25 47.25 0 0 1 2-13.662 33.459 33.459 0 0 1 6.164-11.746 28.889 28.889 0 0 1 10.58-8 32.11 32.11 0 0 1 15.245-2.416v-3.33a41.281 41.281 0 0 0-13.412 1.666 32.571 32.571 0 0 0-9.914 5 25.534 25.534 0 0 0-6.664 7.414 33.151 33.151 0 0 0-3.666 9.08h-.333V60.322h-3.332v85.64h3.332zm38.154-42.153h71.643a59.3 59.3 0 0 0-1.749-16.994 42.268 42.268 0 0 0-6.664-14.495 33.932 33.932 0 0 0-11.83-10.164 36.417 36.417 0 0 0-17.244-3.832 35.067 35.067 0 0 0-25.992 11.746 44.385 44.385 0 0 0-8.33 14.08 53.207 53.207 0 0 0-3.166 18.993 69.658 69.658 0 0 0 2.166 17.744 41.571 41.571 0 0 0 6.664 14.329 30.075 30.075 0 0 0 11.58 9.413q7.08 3.333 17.078 3.166 14.661 0 24.658-8.247t11.83-23.247h-3.332q-2.166 14.163-11.08 21.243t-22.41 7.081q-9.164 0-15.495-3.165A28.074 28.074 0 0 1 296.4 132.8a37.789 37.789 0 0 1-5.914-12.913 69.458 69.458 0 0 1-2.083-16.078zm68.311-3.332h-68.31a51.507 51.507 0 0 1 3.331-16.161 40.064 40.064 0 0 1 7.415-12.246 30.988 30.988 0 0 1 10.663-7.748 32.218 32.218 0 0 1 13.084-2.666 33.112 33.112 0 0 1 14.662 3.083 30.288 30.288 0 0 1 10.58 8.414 37.109 37.109 0 0 1 6.414 12.412 50.7 50.7 0 0 1 2.166 14.912zm72.477-14.828h3.332q0-14.33-8.33-20.827t-22.66-6.5a39.746 39.746 0 0 0-13.5 2 26.983 26.983 0 0 0-9 5.164 18.589 18.589 0 0 0-5 7 20.1 20.1 0 0 0-1.5 7.331q0 7 2.5 11.163a16.446 16.446 0 0 0 7.83 6.5 60.312 60.312 0 0 0 8.331 3q4.665 1.332 10.83 2.831 5.5 1.335 10.83 2.666a39.122 39.122 0 0 1 9.413 3.582 20.348 20.348 0 0 1 6.665 5.749 15.059 15.059 0 0 1 2.582 9.163 16.3 16.3 0 0 1-2.582 9.33 20.815 20.815 0 0 1-6.581 6.249 29.311 29.311 0 0 1-8.914 3.5 44.461 44.461 0 0 1-9.58 1.083q-15.162 0-23.243-6.747t-8.08-21.244h-3.333q0 16.163 8.747 23.66t25.909 7.5a50.605 50.605 0 0 0 11.08-1.25 30.789 30.789 0 0 0 10-4.082 22.591 22.591 0 0 0 7.164-7.33 20.715 20.715 0 0 0 2.75-11 18.509 18.509 0 0 0-2.416-10 20.268 20.268 0 0 0-6.332-6.331 33.58 33.58 0 0 0-8.83-3.915q-4.943-1.424-9.914-2.75-6.117-1.6-12.246-3.165a74.346 74.346 0 0 1-9.746-3.166 16.536 16.536 0 0 1-6.915-5.248q-2.583-3.416-2.582-9.747a22.963 22.963 0 0 1 .666-4.165 14.939 14.939 0 0 1 3.166-6.082 21.315 21.315 0 0 1 7.664-5.5q5.164-2.415 14.162-2.416a44.327 44.327 0 0 1 11.246 1.333 23.381 23.381 0 0 1 8.747 4.249 19.333 19.333 0 0 1 5.665 7.414 27.025 27.025 0 0 1 2 11zm77.141 0h3.332q0-14.33-8.33-20.827t-22.66-6.5a39.74 39.74 0 0 0-13.495 2 26.963 26.963 0 0 0-9 5.164 18.581 18.581 0 0 0-5 7 20.1 20.1 0 0 0-1.5 7.331q0 7 2.5 11.163a16.441 16.441 0 0 0 7.83 6.5 60.344 60.344 0 0 0 8.33 3q4.665 1.332 10.83 2.831 5.5 1.335 10.83 2.666a39.13 39.13 0 0 1 9.414 3.582 20.344 20.344 0 0 1 6.664 5.749 15.053 15.053 0 0 1 2.583 9.163 16.3 16.3 0 0 1-2.583 9.33 20.815 20.815 0 0 1-6.58 6.249 29.316 29.316 0 0 1-8.915 3.5 44.454 44.454 0 0 1-9.58 1.083q-15.162 0-23.242-6.747t-8.081-21.244h-3.332q0 16.163 8.747 23.66t25.908 7.5a50.592 50.592 0 0 0 11.08-1.25 30.8 30.8 0 0 0 10-4.082 22.591 22.591 0 0 0 7.164-7.33 20.715 20.715 0 0 0 2.749-11 18.5 18.5 0 0 0-2.416-10 20.254 20.254 0 0 0-6.331-6.331 33.594 33.594 0 0 0-8.83-3.915q-4.943-1.425-9.914-2.75-6.117-1.6-12.246-3.165a74.314 74.314 0 0 1-9.747-3.166 16.526 16.526 0 0 1-6.914-5.248q-2.583-3.416-2.583-9.747a22.9 22.9 0 0 1 .667-4.165 14.948 14.948 0 0 1 3.165-6.082 21.324 21.324 0 0 1 7.664-5.5q5.166-2.415 14.163-2.416a44.327 44.327 0 0 1 11.246 1.333 23.388 23.388 0 0 1 8.747 4.249 19.333 19.333 0 0 1 5.665 7.414 27.025 27.025 0 0 1 2 11z"/><text fill="#7b7f81" font-family="LucidaGrande-Bold, Lucida Grande" font-size="168" font-weight="700" transform="translate(536 162)"><tspan x="0" y="0">JS</tspan></text></symbol><symbol id="html" viewBox="0 0 273.11 394.31"><path fill="#d99666" d="M.001 103h273.111l-27.311 264-100.141 27.31h-18.207L27.311 367z"/><path fill="#f4b459" d="M136.556 130.3h100.145L218.49 339.688 136.557 367l-.001-236.7z"/><path fill="#fff" d="M209.55 184.806l2.867-27.193H54.331l3.186 27.193 2.914 36.6h-.037l2.759 27.238h105.976l-3.641 43.334-28.932 9.14v-.282l-38.472-10.169-2.358-23.879H63.601l4.315 43.862v1.793l68.642 18.144 57.563-18.144h.7l.018-.246.127-.018v-1.438l5.208-62.1h.118l2.768-27.238H93.841l-2.913-36.6z"/><path fill="#e5e5e5" d="M136.556 157.613H54.331l3.186 27.193 2.914 36.6h-.037l2.759 27.238h73.4V221.4H93.841l-2.913-36.6h45.628zm0 143.22l-38.472-10.169-2.358-23.879H63.601l4.315 43.862v1.793l68.642 18.144v-29.751z"/><text fill="#005a9d" font-family="Montserrat-Bold, Montserrat" font-size="85" font-weight="700" transform="translate(14 82)"><tspan x="0" y="0">HTML</tspan></text></symbol><symbol id="javascript" viewBox="0 0 256 256"><path fill="#F7DF1E" d="M0 0h256v256H0V0z"/><path d="M67.312 213.932l19.59-11.856c3.78 6.701 7.218 12.371 15.465 12.371 7.905 0 12.89-3.092 12.89-15.12v-81.798h24.057v82.138c0 24.917-14.606 36.259-35.916 36.259-19.245 0-30.416-9.967-36.087-21.996m85.07-2.576l19.588-11.341c5.157 8.421 11.859 14.607 23.715 14.607 9.969 0 16.325-4.984 16.325-11.858 0-8.248-6.53-11.17-17.528-15.98l-6.013-2.58c-17.357-7.387-28.87-16.667-28.87-36.257 0-18.044 13.747-31.792 35.228-31.792 15.294 0 26.292 5.328 34.196 19.247l-18.732 12.03c-4.125-7.389-8.591-10.31-15.465-10.31-7.046 0-11.514 4.468-11.514 10.31 0 7.217 4.468 10.14 14.778 14.608l6.014 2.577c20.45 8.765 31.963 17.7 31.963 37.804 0 21.654-17.012 33.51-39.867 33.51-22.339 0-36.774-10.654-43.819-24.574"/></symbol><symbol id="github" viewBox="-.12 175.06 480.24 129.88"><path fill="#121110" d="M92.375 230.65H52.019a1.887 1.887 0 0 0-1.886 1.886v19.731a1.89 1.89 0 0 0 1.886 1.889h15.743v24.513s-3.535 1.206-13.308 1.206c-11.53 0-27.637-4.214-27.637-39.632 0-35.425 16.772-40.087 32.518-40.087 13.63 0 19.502 2.401 23.238 3.556 1.174.36 2.26-.808 2.26-1.851l4.502-19.063c0-.487-.165-1.075-.721-1.474-1.517-1.082-10.774-6.262-34.16-6.262-26.941 0-54.576 11.463-54.576 66.562 0 55.103 31.64 63.313 58.302 63.313 22.076 0 35.468-9.434 35.468-9.434.552-.306.612-1.077.612-1.431v-61.537c0-1.04-.844-1.885-1.885-1.885m207.979-48.986a1.88 1.88 0 0 0-1.873-1.896h-22.724a1.889 1.889 0 0 0-1.882 1.896l.006 43.913h-35.419v-43.913a1.882 1.882 0 0 0-1.875-1.896h-22.722a1.887 1.887 0 0 0-1.877 1.896v118.904c0 1.048.843 1.901 1.877 1.901h22.722c1.039 0 1.875-.854 1.875-1.901v-50.86h35.419l-.062 50.86c0 1.048.844 1.901 1.883 1.901h22.777c1.041 0 1.873-.854 1.875-1.901V181.664m-165.1 15.604c0-8.183-6.56-14.795-14.653-14.795-8.085 0-14.65 6.612-14.65 14.795 0 8.173 6.565 14.802 14.65 14.802 8.093 0 14.653-6.629 14.653-14.802m-1.625 78.218V220.6a1.89 1.89 0 0 0-1.88-1.895h-22.651c-1.039 0-1.969 1.072-1.969 2.115v78.634c0 2.312 1.44 2.998 3.304 2.998h20.408c2.239 0 2.788-1.1 2.788-3.034v-23.932m253.081-56.602h-22.549c-1.034 0-1.876.852-1.876 1.901v58.302s-5.729 4.192-13.859 4.192c-8.13 0-10.287-3.689-10.287-11.65v-50.844c0-1.049-.841-1.901-1.875-1.901h-22.886c-1.032 0-1.879.852-1.879 1.901v54.693c0 23.646 13.179 29.431 31.31 29.431 14.873 0 26.864-8.216 26.864-8.216s.571 4.329.829 4.843c.259.512.932 1.029 1.659 1.029l14.56-.064c1.032 0 1.879-.854 1.879-1.898l-.008-79.817c0-1.05-.843-1.902-1.882-1.902m52.735 64.323c-7.821-.238-13.126-3.788-13.126-3.788v-37.653s5.233-3.208 11.654-3.782c8.12-.727 15.944 1.726 15.944 21.095.001 20.426-3.53 24.457-14.472 24.128zm8.894-66.993c-12.807 0-21.518 5.714-21.518 5.714v-40.263c0-1.05-.839-1.897-1.875-1.897h-22.787a1.887 1.887 0 0 0-1.878 1.897v118.903c0 1.048.842 1.901 1.881 1.901h15.811c.711 0 1.25-.367 1.648-1.009.393-.639.96-5.482.96-5.482s9.318 8.83 26.957 8.83c20.708 0 32.584-10.504 32.584-47.154 0-36.651-18.967-41.44-31.783-41.44m-249.403 2.481h-17.045l-.026-22.519c0-.852-.439-1.278-1.424-1.278h-23.228c-.903 0-1.388.398-1.388 1.265v23.271s-11.64 2.809-12.427 3.037a1.886 1.886 0 0 0-1.361 1.812v14.623c0 1.052.84 1.898 1.879 1.898h11.909v35.178c0 26.13 18.328 28.697 30.696 28.697 5.651 0 12.411-1.814 13.527-2.228.675-.248 1.067-.947 1.067-1.705l.019-16.086c0-1.05-.886-1.897-1.884-1.897-.993 0-3.534.404-6.15.404-8.372 0-11.209-3.893-11.209-8.932l-.001-33.432h17.046c1.039 0 1.88-.847 1.88-1.898v-18.317a1.884 1.884 0 0 0-1.88-1.893"/></symbol><symbol id="jira" viewBox="0 0 512 200"><g fill="#264970"><path d="M468.909 51.385a3.59 3.59 0 0 0-3.426-2.512h-33.52a3.589 3.589 0 0 0-3.424 2.512l-42.29 134.129a3.59 3.59 0 0 0 3.425 4.673h23.077a3.59 3.59 0 0 0 3.445-2.575l29.122-98.647s.762-2.464 3.4-2.464c2.68 0 3.334 2.56 3.334 2.563l13.511 46.78H447a3.591 3.591 0 0 0-3.457 2.618l-5.21 18.519a3.587 3.587 0 0 0 .596 3.14 3.589 3.589 0 0 0 2.863 1.424h31.326l8.138 26.117a3.593 3.593 0 0 0 3.43 2.525h23.087a3.592 3.592 0 0 0 3.425-4.673l-42.29-134.13"/><path d="M311.281 74.988h27.933c14.446 0 17.346 5.684 17.346 14.857v13.699c0 11.417-4.376 15.269-17.346 15.269h-27.933V74.988zm85.289 109.27l-30.694-44.277c13.216-5.482 19.914-16.972 19.914-34.154V87.77c0-26.902-14.045-38.897-45.54-38.897h-54.606a3.592 3.592 0 0 0-3.592 3.59v134.13a3.593 3.593 0 0 0 3.592 3.594h22.045a3.593 3.593 0 0 0 3.592-3.593v-42.066h22.561l30.684 44.117a3.595 3.595 0 0 0 2.949 1.542h26.367a3.592 3.592 0 0 0 2.728-5.93zM255.268 48.873h-22.046a3.592 3.592 0 0 0-3.592 3.59v134.13a3.593 3.593 0 0 0 3.592 3.594h22.046a3.593 3.593 0 0 0 3.593-3.593V52.464a3.592 3.592 0 0 0-3.593-3.591m-51.628 0h-22.314a3.43 3.43 0 0 0-3.43 3.42V157.25c0 13.19-10.051 17.526-16.853 17.872-.917.045-1.984.623-2.57 1.48a3.415 3.415 0 0 0-.447 2.932l5.425 17.648c.443 1.444 2 2.373 4.532 2.373 21.35 0 39.077-16.763 39.077-39.232V52.295a3.42 3.42 0 0 0-3.42-3.422M30.847 12.281c-6.856 0-12.407 5.544-12.407 12.417 0 6.856 5.551 12.42 12.407 12.42 6.86 0 12.406-5.564 12.406-12.42 0-6.873-5.545-12.417-12.406-12.417m81.509 0c-6.859 0-12.403 5.544-12.403 12.417 0 6.856 5.544 12.42 12.403 12.42 6.84 0 12.404-5.564 12.404-12.42 0-6.873-5.564-12.408-12.404-12.417M71.601.951c-6.855 0-12.406 5.543-12.406 12.418 0 6.856 5.55 12.42 12.406 12.42 6.86 0 12.405-5.564 12.405-12.42C84.006 6.494 78.46.951 71.6.951m70.086 45.931a3.9 3.9 0 0 0-2.362-.797c-.467 0-.94.085-1.386.257-8.4 3.213-16.932 5.652-24.718 7.466-1.588.37-2.87 1.55-3.402 2.966-5.673 15.539-20.159 30.336-35.357 45.834-.61.579-1.464 1.343-2.855 1.343-1.388 0-2.234-.74-2.855-1.343C53.555 87.11 39.069 72.364 33.394 56.824c-.532-1.415-1.815-2.594-3.4-2.966-7.791-1.814-16.343-4.329-24.734-7.54a3.91 3.91 0 0 0-1.39-.257c-.841 0-1.656.264-2.344.79a3.881 3.881 0 0 0-1.508 3.432c1.287 12.922 6.393 25.555 15.608 38.792 8.662 12.446 19.96 23.966 30.883 35.106 20.126 20.53 39.139 39.918 40.807 62.401a3.889 3.889 0 0 0 3.878 3.6h23.646a3.892 3.892 0 0 0 3.884-4.08c-.744-15.032-6.401-30.086-17.294-46.016-2.283-3.34-4.728-6.59-7.285-9.77-1.039-1.295-.604-2.904.19-3.716.786-.804 1.575-1.606 2.37-2.419 10.923-11.14 22.22-22.66 30.883-35.106 9.214-13.239 14.318-25.797 15.606-38.717.128-1.298-.461-2.676-1.508-3.476M46.232 141.67c-.56-.585-1.381-1.182-2.761-1.182-1.765 0-2.812 1.22-3.208 1.824-9.946 15.135-15.083 29.42-15.793 43.775a3.938 3.938 0 0 0 1.07 2.883 3.937 3.937 0 0 0 2.83 1.212h23.605a3.92 3.92 0 0 0 3.891-3.614c.514-6.919 2.668-13.854 6.59-21.142 1.36-2.521.303-4.89-.479-5.902-3.89-5.06-8.656-10.457-15.745-17.854"/><path d="M71.628 58.466c7.41 0 11.708-.445 13.218-.445 1.83 0 3.577 1.499 3.577 3.597 0 .612-.145 1.05-.288 1.437-.983 2.627-5.462 12.08-13.801 20.189-.936.91-1.996 1.08-2.726 1.08H71.6c-.729 0-1.788-.17-2.723-1.08-8.34-8.109-12.82-17.562-13.8-20.19-.145-.386-.29-.824-.29-1.436 0-2.098 1.75-3.597 3.58-3.597 1.51 0 5.805.445 13.213.445h.049"/></g></symbol><symbol id="nodejs" viewBox="0 0 512 145"><g fill="#83CD29"><path d="M471.05 51.611c-1.244 0-2.454.257-3.525.863l-33.888 19.57c-2.193 1.264-3.526 3.65-3.526 6.189v39.069c0 2.537 1.333 4.92 3.526 6.187l8.85 5.109c4.3 2.119 5.885 2.086 7.842 2.086 6.366 0 10.001-3.863 10.001-10.576V81.542c0-.545-.472-.935-1.007-.935h-4.245c-.544 0-1.007.39-1.007.935v38.566c0 2.975-3.1 5.968-8.13 3.453l-9.21-5.396c-.326-.177-.576-.49-.576-.863v-39.07c0-.37.247-.747.576-.935L470.547 57.8a.998.998 0 0 1 1.007 0l33.817 19.498c.322.194.576.553.576.936v39.069c0 .373-.188.755-.504.935l-33.889 19.498c-.29.173-.69.173-1.007 0l-8.706-5.18a.905.905 0 0 0-.863 0c-2.403 1.362-2.855 1.52-5.109 2.302-.555.194-1.398.495.288 1.44l11.368 6.69a6.995 6.995 0 0 0 3.526.936 6.949 6.949 0 0 0 3.525-.935l33.889-19.499c2.193-1.275 3.525-3.65 3.525-6.187v-39.07c0-2.538-1.332-4.92-3.525-6.187l-33.889-19.57c-1.062-.607-2.28-.864-3.525-.864z"/><path d="M480.116 79.528c-9.65 0-15.397 4.107-15.397 10.937 0 7.408 5.704 9.444 14.966 10.36 11.08 1.085 11.943 2.712 11.943 4.893 0 3.783-3.016 5.396-10.144 5.396-8.957 0-10.925-2.236-11.584-6.691-.078-.478-.447-.864-.936-.864h-4.389c-.54 0-1.007.466-1.007 1.008 0 5.703 3.102 12.447 17.916 12.447 10.723 0 16.908-4.209 16.908-11.584 0-7.31-4.996-9.273-15.398-10.648-10.51-1.391-11.512-2.072-11.512-4.533 0-2.032.85-4.75 8.634-4.75 6.954 0 9.524 1.5 10.577 6.189.092.44.48.791.935.791h4.39c.27 0 .532-.166.719-.36.184-.207.314-.44.288-.719-.68-8.074-6.064-11.872-16.909-11.872z"/></g><path fill="#404137" d="M271.821.383a2.181 2.181 0 0 0-1.08.287 2.18 2.18 0 0 0-1.079 1.871v55.042c0 .54-.251 1.024-.719 1.295a1.501 1.501 0 0 1-1.511 0l-8.994-5.18a4.31 4.31 0 0 0-4.317 0l-35.903 20.721c-1.342.775-2.158 2.264-2.158 3.814v41.443c0 1.548.817 2.966 2.158 3.741l35.903 20.722a4.3 4.3 0 0 0 4.317 0l35.903-20.722a4.308 4.308 0 0 0 2.159-3.741V16.356a4.386 4.386 0 0 0-2.23-3.814L272.9.598c-.335-.187-.707-.22-1.079-.215zM40.861 52.115c-.684.027-1.328.147-1.942.503L3.015 73.34a4.3 4.3 0 0 0-2.158 3.741L.929 132.7c0 .773.399 1.492 1.079 1.87a2.096 2.096 0 0 0 2.159 0l21.297-12.231c1.349-.802 2.23-2.196 2.23-3.742V92.623c0-1.55.815-2.972 2.159-3.742l9.065-5.252a4.251 4.251 0 0 1 2.159-.576c.74 0 1.5.185 2.158.576l9.066 5.252a4.296 4.296 0 0 1 2.159 3.742v25.973c0 1.546.89 2.95 2.23 3.742l21.297 12.232a2.096 2.096 0 0 0 2.159 0 2.164 2.164 0 0 0 1.08-1.871l.07-55.618a4.28 4.28 0 0 0-2.158-3.741L43.235 52.618c-.607-.356-1.253-.475-1.942-.503h-.432zm322.624.503c-.75 0-1.485.19-2.158.576l-35.903 20.722a4.306 4.306 0 0 0-2.159 3.741V119.1c0 1.559.878 2.971 2.23 3.742l35.616 20.29c1.315.75 2.921.807 4.245.07l21.585-12.015c.685-.38 1.148-1.09 1.151-1.87a2.126 2.126 0 0 0-1.079-1.871l-36.119-20.722c-.676-.386-1.151-1.167-1.151-1.943v-12.95c0-.775.48-1.485 1.151-1.871l11.224-6.476a2.155 2.155 0 0 1 2.159 0L375.5 89.96a2.152 2.152 0 0 1 1.08 1.87v10.217a2.15 2.15 0 0 0 1.079 1.87c.673.389 1.487.39 2.158 0L401.331 91.4a4.325 4.325 0 0 0 2.159-3.742v-10c0-1.545-.82-2.966-2.159-3.742l-35.687-20.722a4.279 4.279 0 0 0-2.159-.575zm-107.35 30.939c.188 0 .408.046.576.143l12.304 7.123c.334.193.576.55.576.935v14.246c0 .387-.24.743-.576.936l-12.304 7.123a1.088 1.088 0 0 1-1.079 0l-12.303-7.123c-.335-.194-.576-.549-.576-.936V91.758c0-.386.242-.74.576-.935l12.303-7.122a.948.948 0 0 1 .504-.143v-.001z"/><path fill="#83CD29" d="M148.714 52.402c-.748 0-1.488.19-2.158.576l-35.903 20.65c-1.343.773-2.159 2.265-2.159 3.813v41.443c0 1.55.817 2.966 2.159 3.742l35.903 20.721a4.297 4.297 0 0 0 4.317 0l35.903-20.721a4.308 4.308 0 0 0 2.158-3.742V77.441c0-1.55-.816-3.04-2.158-3.813l-35.903-20.65a4.297 4.297 0 0 0-2.159-.576zm214.699 36.983c-.143 0-.302 0-.431.072l-6.907 4.029a.84.84 0 0 0-.432.72v7.914a.84.84 0 0 0 .432.72l6.907 3.957c.259.15.535.15.791 0l6.907-3.958a.846.846 0 0 0 .432-.719v-7.915a.846.846 0 0 0-.432-.719l-6.907-4.03c-.128-.075-.216-.07-.36-.07z"/></symbol><symbol id="redis" viewBox="0 0 274 325"><path fill="#912626" d="M245.97 168.359c-13.662 7.121-84.434 36.22-99.5 44.075s-23.437 7.78-35.34 2.09-87.217-36.108-100.784-42.597C3.566 168.687 0 165.951 0 163.367v-25.876s98.05-21.345 113.879-27.024 21.32-5.884 34.79-.95S242.687 128.985 256 133.861l-.006 25.51c0 2.558-3.07 5.364-10.024 8.988"/><path fill="#c6302b" d="M245.965 142.636c-13.661 7.118-84.431 36.218-99.5 44.072s-23.436 7.78-35.338 2.09-87.214-36.113-100.78-42.594-13.847-10.948-.522-16.166 88.224-34.6 104.055-40.284 21.319-5.884 34.789-.948 83.819 32.935 97.13 37.81 13.827 8.9.166 16.02"/><path fill="#912626" d="M245.97 126.49c-13.662 7.122-84.434 36.22-99.5 44.078s-23.437 7.777-35.34 2.087-87.216-36.112-100.783-42.6C3.566 126.816 0 124.086 0 121.501V95.622s98.05-21.344 113.879-27.023 21.32-5.885 34.79-.95S242.688 87.116 256 91.99l-.006 25.513c0 2.557-3.07 5.363-10.024 8.987"/><path fill="#c6302b" d="M245.965 100.767c-13.661 7.12-84.431 36.218-99.5 44.075s-23.436 7.777-35.338 2.087-87.212-36.113-100.778-42.594S-3.5 93.388 9.825 88.168 98.05 53.564 113.88 47.886s21.319-5.884 34.789-.949 83.819 32.933 97.13 37.81 13.827 8.9.166 16.02"/><path fill="#912626" d="M245.97 83.069c-13.662 7.12-84.434 36.22-99.5 44.078s-23.437 7.777-35.34 2.087S23.913 93.121 10.346 86.639C3.566 83.396 0 80.663 0 78.081v-25.88S98.05 30.858 113.879 25.18s21.32-5.884 34.79-.95S242.688 43.694 256 48.571l-.006 25.512c0 2.555-3.07 5.361-10.024 8.986"/><path fill="#c6302b" d="M245.965 57.346c-13.665 7.12-84.431 36.22-99.498 44.07s-23.436 7.777-35.338 2.09-87.214-36.11-100.779-42.59-13.85-10.95-.525-16.169S98.05 10.146 113.88 4.466s21.32-5.883 34.789-.95 83.819 32.934 97.13 37.811 13.827 8.9.166 16.017"/><path fill="#fff" d="M159.283 32.173l-22.01 2.285-4.927 11.858-7.958-13.23L98.973 30.8l18.964-6.839-5.69-10.5L130 20.407l16.738-5.48-4.524 10.855 17.067 6.391m-28.249 57.518L89.955 72.654l58.86-9.035-17.783 26.072m-56.95-50.928c17.375 0 31.46 5.46 31.46 12.194s-14.085 12.195-31.46 12.195-31.46-5.46-31.46-12.195 14.085-12.194 31.46-12.194"/><path fill="#621b1c" d="M185.295 35.416l34.836 13.766-34.806 13.751-.03-27.517"/><path fill="#9a2928" d="M146.755 50.659L185.3 35.416l.03 27.519-3.779 1.478-34.796-13.754"/><text fill="#e34040" font-family="Montserrat-Bold, Montserrat" font-size="83" font-weight="700" transform="translate(8 304)"><tspan x="0" y="0">REDIS</tspan></text></symbol><symbol id="redux-saga" viewBox="0 0 495 350.7"><path fill="#89d96d" d="M245.91 91.287a17.162 17.162 0 0 1 25.773-14.857 148.078 148.078 0 0 1 50.883-8.7c48.227 0 89.591 21.54 103.574 52.539-.119 7.339-10.545 10.757-14.7 6.253-11.475-24.896-47.689-42.815-88.875-42.815a133.471 133.471 0 0 0-42.345 6.65 17.168 17.168 0 1 1-34.31.934zm192.834 63.878a17.168 17.168 0 1 0-30.641 10.631c-5.484 8.432-14.009 16.069-24.931 22.2-16.87 9.459-38.391 14.671-60.613 14.671-19.242 0-37.715-3.809-53.44-11.028-10.624-4.879-19.46-11.039-26.064-18.132-4.378-2.55-14.5 5.584-10.83 11.783 19.831 20.626 53.466 33.357 90.333 33.357 24.912 0 49.214-5.935 68.429-16.718 14.082-7.9 25.011-18.136 31.886-29.647a17.182 17.182 0 0 0 15.871-17.117z"/><path fill="#999" d="M107.979 187.383C92.32 167.081 83.452 138.434 83.452 107.5c0-28.15 7.425-54.718 20.9-74.814C118.484 11.6 137.6 0 158.173 0c18.747 0 36.629 9.882 50.347 27.819 12.949 16.943 21.374 40.053 23.713 65.084a165.479 165.479 0 0 0-17.163-8.233c-6.644-39.788-30.065-68.7-56.9-68.7-15.082 0-29.488 9.094-40.563 25.614-11.73 17.493-18.2 40.908-18.2 65.925 0 27.5 8.127 53.612 21.924 71.032a17.168 17.168 0 1 1-13.36 8.843zm122.16-84.657c-28.031-16.188-59.308-22.613-85.193-18.1a17.168 17.168 0 1 0 4.855 15.347c21.785-3.219 48.233 2.649 72.35 16.579 29.455 17 50.287 43.4 54.36 67.873a106.372 106.372 0 0 0 16.625 5.345c-1.563-31.794-25.958-65.673-63-87.048zm4.232 132.34c-15.46 1.967-33-.49-50.247-6.942a164.355 164.355 0 0 1-15.711 10.737c18.321 8.412 37.516 12.83 55.321 12.83a100.494 100.494 0 0 0 12.664-.782c21.322-2.709 38.218-12.327 47.935-27.19a147.547 147.547 0 0 1-16.228-4.935c-7.477 8.725-19.194 14.435-33.733 16.283zm-17.1-62.739a17.168 17.168 0 1 0-14.247-7.319 94.606 94.606 0 0 1-14.161 23.209 131.432 131.432 0 0 1-35.913 30.1c-19.613 11.333-40.735 17.414-60.163 17.407-2.027 0-4.04-.066-6.028-.2C66.92 234.2 51.844 226.27 44.3 213.215c-13.367-23.156-.04-57.983 31.038-83.6a164.2 164.2 0 0 1-1.391-17.182l-.881-1.225c-20.246 14.555-35.807 33.34-43.846 52.88-8.507 20.705-8.064 40.987 1.249 57.112 10.287 17.811 29.9 28.568 55.221 30.27q3.487.229 7.048.232c22.222 0 46.167-6.822 68.2-19.546 26.263-15.155 46.425-36.8 56.341-59.825z"/><text fill="#999" font-family="Montserrat-SemiBold, Montserrat" font-size="72" font-weight="600" transform="translate(0 332.699)"><tspan x="0" y="0">REDUX</tspan><tspan y="0" fill="#1f93ef"> </tspan><tspan y="0" fill="#89d96d">SAGA</tspan></text></symbol><symbol id="react" viewBox="0 0 490.6 560"><g fill="#61dafb" transform="translate(-175.7 -78)"><path d="M666.3 296.5c0-32.5-40.7-63.3-103.1-82.4 14.4-63.6 8-114.2-20.2-130.4a43.843 43.843 0 0 0-22.4-5.6v22.3A23.156 23.156 0 0 1 532 103c13.6 7.8 19.5 37.5 14.9 75.7-1.1 9.4-2.9 19.3-5.1 29.4a484.619 484.619 0 0 0-63.5-10.9 487.8 487.8 0 0 0-41.6-50c32.6-30.3 63.2-46.9 84-46.9V78c-27.5 0-63.5 19.6-99.9 53.6-36.4-33.8-72.4-53.2-99.9-53.2v22.3c20.7 0 51.4 16.5 84 46.6a472.313 472.313 0 0 0-41.3 49.9 466.976 466.976 0 0 0-63.6 11c-2.3-10-4-19.7-5.2-29-4.7-38.2 1.1-67.9 14.6-75.8 3-1.8 6.9-2.6 11.5-2.6V78.5a44.589 44.589 0 0 0-22.6 5.6c-28.1 16.2-34.4 66.7-19.9 130.1-62.2 19.2-102.7 49.9-102.7 82.3 0 32.5 40.7 63.3 103.1 82.4-14.4 63.6-8 114.2 20.2 130.4 6.5 3.8 14.1 5.6 22.5 5.6 27.5 0 63.5-19.6 99.9-53.6 36.4 33.8 72.4 53.2 99.9 53.2a44.588 44.588 0 0 0 22.6-5.6c28.1-16.2 34.4-66.7 19.9-130.1 62-19.1 102.5-49.9 102.5-82.3zm-130.2-66.7c-3.7 12.9-8.3 26.2-13.5 39.5-4.1-8-8.4-16-13.1-24-4.6-8-9.5-15.8-14.4-23.4 14.2 2.1 27.9 4.7 41 7.9zm-45.8 106.5c-7.8 13.5-15.8 26.3-24.1 38.2-14.9 1.3-30 2-45.2 2-15.1 0-30.2-.7-45-1.9q-12.45-17.85-24.2-38-11.4-19.65-20.8-39.8c6.2-13.4 13.2-26.8 20.7-39.9 7.8-13.5 15.8-26.3 24.1-38.2 14.9-1.3 30-2 45.2-2 15.1 0 30.2.7 45 1.9q12.45 17.85 24.2 38 11.4 19.65 20.8 39.8c-6.3 13.4-13.2 26.8-20.7 39.9zm32.3-13c5.4 13.4 10 26.8 13.8 39.8-13.1 3.2-26.9 5.9-41.2 8 4.9-7.7 9.8-15.6 14.4-23.7 4.6-8 8.9-16.1 13-24.1zM421.2 430a412.263 412.263 0 0 1-27.8-32c9 .4 18.2.7 27.5.7 9.4 0 18.7-.2 27.8-.7a390.323 390.323 0 0 1-27.5 32zm-74.4-58.9c-14.2-2.1-27.9-4.7-41-7.9 3.7-12.9 8.3-26.2 13.5-39.5 4.1 8 8.4 16 13.1 24s9.5 15.8 14.4 23.4zM420.7 163a412.265 412.265 0 0 1 27.8 32c-9-.4-18.2-.7-27.5-.7-9.4 0-18.7.2-27.8.7a390.325 390.325 0 0 1 27.5-32zm-74 58.9c-4.9 7.7-9.8 15.6-14.4 23.7-4.6 8-8.9 16-13 24-5.4-13.4-10-26.8-13.8-39.8 13.1-3.1 26.9-5.8 41.2-7.9zm-90.5 125.2c-35.4-15.1-58.3-34.9-58.3-50.6s22.9-35.6 58.3-50.6c8.6-3.7 18-7 27.7-10.1a480.287 480.287 0 0 0 22.5 60.9 473.512 473.512 0 0 0-22.2 60.6c-9.9-3.1-19.3-6.5-28-10.2zM310 490c-13.6-7.8-19.5-37.5-14.9-75.7 1.1-9.4 2.9-19.3 5.1-29.4a484.623 484.623 0 0 0 63.5 10.9 487.8 487.8 0 0 0 41.6 50c-32.6 30.3-63.2 46.9-84 46.9A23.865 23.865 0 0 1 310 490zm237.2-76.2c4.7 38.2-1.1 67.9-14.6 75.8-3 1.8-6.9 2.6-11.5 2.6-20.7 0-51.4-16.5-84-46.6a472.314 472.314 0 0 0 41.3-49.9 466.975 466.975 0 0 0 63.6-11 279.957 279.957 0 0 1 5.2 29.1zm38.5-66.7c-8.6 3.7-18 7-27.7 10.1a480.287 480.287 0 0 0-22.5-60.9 473.517 473.517 0 0 0 22.2-60.6c9.9 3.1 19.3 6.5 28.1 10.2 35.4 15.1 58.3 34.9 58.3 50.6-.1 15.7-23 35.6-58.4 50.6z"/><circle cx="45.7" cy="45.7" r="45.7" transform="translate(375.2 250.8)"/></g><text fill="#005a9d" font-family="Montserrat-Bold, Montserrat" font-size="85" font-weight="700" transform="translate(43 539)"><tspan x="0" y="0">REACT JS</tspan></text></symbol><symbol id="redux" viewBox="0 0 267 347"><path fill="#764abc" d="M182.381 169.733a18.3 18.3 0 0 0-1.955-36.488h-.651a18.226 18.226 0 0 0-17.592 18.9 18.709 18.709 0 0 0 5.212 12.054c-11.076 21.828-28.016 37.791-53.426 51.148-17.266 9.122-35.183 12.38-53.1 10.1-14.66-1.955-26.062-8.47-33.23-19.222-10.424-15.963-11.4-33.23-2.6-50.5a76.685 76.685 0 0 1 22.152-26.063c-1.3-4.235-3.258-11.4-4.235-16.614C-4.286 147.254.6 193.515 14.935 215.342c10.75 16.29 32.577 26.389 56.684 26.389a80.13 80.13 0 0 0 19.546-2.28c41.7-8.145 73.3-32.9 91.216-69.718zm57.336-40.4c-24.759-29-61.245-44.958-102.944-44.958h-5.212A17.9 17.9 0 0 0 115.6 74.6h-.652a18.25 18.25 0 0 0 .652 36.488h.651a18.351 18.351 0 0 0 15.963-11.077h5.864a124.163 124.163 0 0 1 69.39 21.176c16.288 10.751 28.016 24.76 34.531 41.7 5.538 13.683 5.212 27.04-.652 38.443-9.121 17.266-24.432 26.714-44.63 26.714a83.321 83.321 0 0 1-31.926-6.842c-3.583 3.258-10.1 8.47-14.66 11.729 14.009 6.515 28.343 10.1 42.025 10.1 31.274 0 54.4-17.267 63.2-34.533 9.447-18.9 8.795-51.474-15.637-79.165zM74.225 175.27a18.3 18.3 0 0 0 18.243 17.592h.652a18.249 18.249 0 0 0-.652-36.487h-.651a5.55 5.55 0 0 0-2.28.325c-13.357-22.153-18.9-46.26-16.94-72.323 1.3-19.547 7.818-36.488 19.22-50.5 9.447-12.054 27.69-17.918 40.07-18.243 34.531-.652 49.19 42.351 50.168 59.618 4.235.977 11.4 3.258 16.289 4.887C194.434 27.366 161.857 0 130.584 0c-29.32 0-56.359 21.176-67.11 52.451-14.985 41.7-5.212 81.771 13.031 113.372a14.639 14.639 0 0 0-2.28 9.448z"/><text fill="#1f93ef" font-family="Montserrat-SemiBold, Montserrat" font-size="72" font-weight="600" transform="translate(0 329)"><tspan x="0" y="0">REDUX</tspan></text></symbol><symbol id="sass" viewBox="0 0 512 384"><path fill="#CF649A" d="M440.6 220.6c-17.9.101-33.4 4.4-46.4 10.801-4.8-9.5-9.6-17.801-10.399-24-.9-7.2-2-11.601-.9-20.2C384 178.6 389 166.4 389 165.4c-.101-.9-1.101-5.3-11.4-5.4s-19.2 2-20.2 4.7-3 8.9-4.3 15.3c-1.8 9.4-20.6 42.7-31.3 60.2-3.5-6.8-6.5-12.8-7.101-17.601-.899-7.199-2-11.6-.899-20.199 1.1-8.601 6.1-20.8 6.1-21.8-.1-.9-1.1-5.3-11.399-5.4-10.301-.1-19.2 2-20.2 4.7s-2.1 9.1-4.3 15.3C281.9 201.4 256.9 257 250.4 271.5c-3.3 7.4-6.199 13.3-8.3 17.3-2.1 4-.1.3-.3.7-1.8 3.4-2.8 5.3-2.8 5.3v.101c-1.4 2.5-2.9 4.899-3.601 4.899-.5 0-1.5-6.7.2-15.899 3.7-19.301 12.7-49.4 12.601-50.5 0-.5 1.699-5.801-5.801-8.5-7.3-2.7-9.899 1.8-10.5 1.8-.6 0-1.1 1.6-1.1 1.6s8.1-33.899-15.5-33.899c-14.8 0-35.2 16.1-45.3 30.8-6.4 3.5-20 10.899-34.4 18.8-5.5 3-11.2 6.2-16.6 9.1L117.9 251.9c-28.6-30.5-81.5-52.1-79.3-93.1.8-14.9 6-54.2 101.601-101.8 78.3-39 141-28.3 151.899-4.5 15.5 34-33.5 97.2-114.899 106.3-31 3.5-47.301-8.5-51.4-13-4.3-4.7-4.9-4.9-6.5-4-2.6 1.4-1 5.6 0 8.1 2.4 6.3 12.4 17.5 29.4 23.1 14.899 4.9 51.3 7.6 95.3-9.4 49.3-19.1 87.8-72.1 76.5-116.4-11.5-45.1-86.3-59.9-157-34.8C121.4 27.4 75.8 50.8 43 81.5 4 117.9-2.2 149.7.4 162.9c9.101 47.1 74 77.8 100 100.5-1.3.699-2.5 1.399-3.6 2-13 6.399-62.5 32.3-74.9 59.699-14 31 2.2 53.301 13 56.301 33.4 9.3 67.6-7.4 86.1-34.9 18.399-27.5 16.2-63.2 7.7-79.5l-.301-.6 10.2-6c6.601-3.9 13.101-7.5 18.8-10.601-3.199 8.7-5.5 19-6.699 34-1.4 17.601 5.8 40.4 15.3 49.4 4.2 3.899 9.2 4 12.3 4 11 0 16-9.101 21.5-20 6.8-13.3 12.8-28.7 12.8-28.7s-7.5 41.7 13 41.7c7.5 0 15-9.7 18.4-14.7v.1s.2-.3.6-1a36.13 36.13 0 0 0 1.2-1.899v-.2c3-5.2 9.7-17.1 19.7-36.8 12.899-25.4 25.3-57.2 25.3-57.2s1.2 7.8 4.9 20.6c2.199 7.601 6.999 15.9 10.699 24-3 4.2-4.8 6.601-4.8 6.601l.1.1c-2.399 3.2-5.1 6.601-7.899 10-10.2 12.2-22.4 26.101-24 30.101-1.9 4.699-1.5 8.199 2.2 11 2.7 2 7.5 2.399 12.6 2 9.2-.601 15.6-2.9 18.8-4.301 5-1.8 10.7-4.5 16.2-8.5 10-7.399 16.1-17.899 15.5-31.899-.3-7.7-2.8-15.3-5.9-22.5.9-1.3 1.801-2.601 2.7-4 15.8-23.101 28-48.5 28-48.5s1.2 7.8 4.9 20.6c1.899 6.5 5.7 13.601 9.1 20.601-14.8 12.1-24.1 26.1-27.3 35.3-5.9 17-1.3 24.7 7.4 26.5 3.899.8 9.5-1 13.699-2.8 5.2-1.7 11.5-4.601 17.301-8.9 10-7.4 19.6-17.7 19.1-31.6-.3-6.4-2-12.7-4.3-18.7 12.6-5.2 28.899-8.2 49.6-5.7 44.5 5.2 53.3 33 51.601 44.6-1.7 11.601-11 18-14.101 20-3.1 1.9-4.1 2.601-3.8 4 .4 2.101 1.8 2 4.5 1.601 3.7-.601 23.4-9.5 24.2-30.899 1.2-27.504-24.9-57.504-71.2-57.205zM97.4 336.3c-14.7 16.1-35.4 22.2-44.2 17-9.5-5.5-5.801-29.2 12.3-46.3 11-10.4 25.3-20 34.7-25.9 2.1-1.3 5.3-3.199 9.1-5.5.6-.399 1-.6 1-.6.7-.4 1.5-.9 2.3-1.4 6.7 24.4.3 45.8-15.2 62.7zm107.5-73.1c-5.1 12.5-15.9 44.6-22.4 42.8-5.601-1.5-9-25.8-1.101-49.8 4-12.101 12.5-26.5 17.5-32.101 8.101-9 16.9-12 19.101-8.3 2.6 4.801-9.9 39.601-13.1 47.401zm88.7 42.4c-2.2 1.101-4.2 1.9-5.1 1.301-.7-.4.899-1.9.899-1.9s11.1-11.9 15.5-17.4c2.5-3.199 5.5-6.899 8.7-11.1v1.2C313.6 292.1 299.8 301.7 293.6 305.6zm68.399-15.6c-1.6-1.2-1.399-4.9 4-16.5 2.101-4.6 6.9-12.3 15.2-19.6 1 3 1.601 5.899 1.5 8.6-.099 18-12.899 24.7-20.7 27.5z"/></symbol><symbol id="w3c" viewBox="0 0 434.59 165.56"><path fill="#005a9d" d="M24.213 8.323l38.472 98.766 40.2-105.943 38.468 105.943 40.865-98.766h24.216l-66.038 157.145-37.994-104.699-39.621 104.795L0 8.323z"/><path d="M412.254 50.808h20.805a58.181 58.181 0 0 0-7.446-22.009 54.153 54.153 0 0 0-14.235-15.878 62.4 62.4 0 0 0-19.491-9.636A80.376 80.376 0 0 0 368.673 0q-17.958 0-31.865 6.461a65.852 65.852 0 0 0-23.213 17.628 77.314 77.314 0 0 0-14.126 26.17 104.321 104.321 0 0 0-4.818 32.085 110.258 110.258 0 0 0 4.49 31.974 73.851 73.851 0 0 0 13.468 25.842 62.37 62.37 0 0 0 22.557 17.192q13.578 6.237 31.755 6.237 30 0 47.3-16.425t20.367-45.99h-20.8a59.666 59.666 0 0 1-3.942 17.958 43.342 43.342 0 0 1-9.089 14.345 41.394 41.394 0 0 1-13.8 9.417 46.416 46.416 0 0 1-18.284 3.395q-14.016 0-24.09-5.256a47.047 47.047 0 0 1-16.535-14.123c-4.307-5.913-31.353-38.142-33.4-46.1s20.8 8.906 20.8 0a90.583 90.583 0 0 1 3.066-23.652 60.967 60.967 0 0 1 9.527-20.257 47.329 47.329 0 0 1 16.433-14.125q9.964-5.256 23.98-5.256 16.425 0 28.361 8.322t15.439 24.966z"/><path fill="#005a9d" d="M239.354 72.889l45.144-56.772V4.489h-102.6v14.592h81.624L219.29 74.489v12.08h11.4c29.64 0 43.092 12.54 43.092 31.692 0 19.836-14.592 32.148-41.04 32.148-20.748 0-39.216-7.752-49.476-18.468l-7.98 13c12.312 12.536 34.428 20.516 57.456 20.516 38.532 0 57.912-20.52 57.912-47.2 0-25.532-17.1-43.544-51.3-45.368z"/></symbol><symbol id="webpack" viewBox="0 0 476.91 603"><path fill="#fff" d="M238.453 0l238.453 134.9v269.791l-238.453 134.9L0 404.691V134.9z"/><path fill="#8ed6fb" d="M434.324 395.383l-188 106.344V418.9l117.134-64.439zm12.86-11.646v-222.4l-68.8 39.7v142.95l68.8 39.75zM41.818 395.383l188 106.344V418.9l-117.134-64.439zm-12.86-11.646v-222.4l68.8 39.7v142.95l-68.8 39.75zm8.049-236.789L229.82 37.861v80.084l-123.521 67.943-.944.54zm402.128 0L246.322 37.861v80.084l123.521 67.943.944.54z"/><path fill="#1c78c0" d="M229.82 400.06l-115.562-63.537v-125.9l115.562 66.721V400.06m16.5 0l115.562-63.536v-125.9l-115.56 66.72V400.06m-124.24-204.01l116.011-63.806 116.011 63.806-116.011 67-116.011-67"/><text fill="#1c78c0" font-family="Montserrat-SemiBold, Montserrat" font-size="72" font-weight="600" transform="translate(40 585)"><tspan x="0" y="0">WEBPACK</tspan></text></symbol><symbol id="mongodb" viewBox="0 0 512 146"><g fill="none" fill-rule="evenodd"><path fill="#8E714E" d="M476.713 60.463c-.46.092-.922 1.107-.922 1.66-.092 3.692-.184 13.474-.184 20.118 0 .185.276.554.553.554 1.384.092 4.706.184 7.567.184 3.968 0 6.275-.553 7.568-1.106 3.321-1.662 4.89-5.261 4.89-9.23 0-8.95-6.275-12.365-15.596-12.365-.646-.092-2.49-.092-3.876.185zm23.81 41.25c0-9.136-6.737-14.212-18.918-14.212-.554 0-4.43-.092-5.353.092-.277.093-.645.278-.645.555 0 6.551-.093 16.98.184 21.04.184 1.753 1.477 4.245 3.046 4.983 1.66.923 5.444 1.107 8.028 1.107 7.29 0 13.658-4.06 13.658-13.565zm-42.634-46.325c.922 0 3.69.276 10.796.276 6.737 0 12.089-.184 18.641-.184 8.028 0 19.102 2.86 19.102 14.857 0 5.906-4.153 10.613-9.597 12.92-.276.092-.276.276 0 .368 7.751 1.939 14.581 6.737 14.581 15.78 0 8.86-5.537 14.489-13.566 17.996-4.891 2.122-10.981 2.86-17.164 2.86-4.707 0-17.349-.553-24.362-.368-.738-.278.646-3.6 1.291-4.153 1.662-.093 2.953-.185 4.707-.739 2.492-.645 2.768-1.384 3.137-5.167.185-3.23.185-14.674.185-22.794 0-11.166.093-18.733 0-22.424-.092-2.86-1.107-3.784-3.137-4.338-1.57-.276-4.153-.646-6.276-.922-.462-.462 1.107-3.6 1.662-3.968zm-53.248 57.399c2.216 1.752 6.553 2.49 10.429 2.49 4.983 0 9.966-.921 14.765-5.26 4.891-4.428 8.305-11.257 8.305-22.146 0-10.429-3.968-18.919-12.089-23.901-4.614-2.862-10.52-4.06-17.349-4.06-2.03 0-3.968.092-5.167.645-.278.185-.923 1.015-.923 1.476-.185 1.846-.185 16.057-.185 24.363 0 8.582 0 20.579.185 21.963 0 1.385.645 3.507 2.03 4.43zm-20.948-57.4c1.754 0 8.49.277 11.72.277 5.815 0 9.967-.276 20.948-.276 9.228 0 16.98 2.491 22.517 7.197 6.736 5.814 10.244 13.843 10.244 23.624 0 13.935-6.368 21.964-12.736 26.578-6.366 4.706-14.672 7.474-26.484 7.474-6.275 0-17.072-.184-26.024-.277h-.092c-.461-.83.738-4.06 1.476-4.152 2.4-.277 3.046-.37 4.246-.83 1.937-.739 2.307-1.754 2.584-5.168.276-6.368.184-14.027.184-22.702 0-6.182.092-18.272-.093-22.148-.276-3.229-1.66-4.06-4.429-4.614-1.384-.276-3.23-.646-5.813-.922-.37-.647 1.291-3.507 1.752-4.06z"/><path fill="#442D22" d="M272.033 116.385c-2.307-.277-3.968-.645-5.998-1.568-.277-.185-.739-1.107-.739-1.477-.184-3.23-.184-12.458-.184-18.64 0-4.984-.83-9.321-2.953-12.366-2.492-3.508-6.09-5.537-10.705-5.537-4.06 0-9.505 2.768-14.027 6.644-.092.092-.83.739-.738-.277 0-1.015.185-3.045.277-4.43.093-1.292-.646-1.937-.646-1.937-2.953 1.476-11.258 3.414-14.304 3.69-2.214.463-2.768 2.585-.46 3.323h.092c2.49.738 4.152 1.569 5.443 2.4.923.738.831 1.753.831 2.584.092 6.92.092 17.533-.184 23.347-.092 2.307-.738 3.137-2.4 3.506l.185-.092c-1.292.277-2.307.553-3.876.738-.554.554-.554 3.507 0 4.153 1.015 0 6.367-.277 10.798-.277 6.09 0 9.228.277 10.796.277.646-.738.831-3.507.462-4.153-1.754-.092-3.046-.276-4.245-.646-1.661-.37-2.123-1.199-2.216-3.137-.183-4.892-.183-15.227-.183-22.24 0-1.938.553-2.861 1.106-3.415 2.123-1.845 5.538-3.137 8.583-3.137 2.953 0 4.89.923 6.367 2.123 2.03 1.66 2.676 4.06 2.953 5.813.461 3.968.277 11.812.277 18.641 0 3.691-.277 4.614-1.66 5.075-.647.277-2.308.647-4.246.83-.646.647-.461 3.508 0 4.154 2.676 0 5.814-.277 10.428-.277 5.721 0 9.413.277 10.89.277.46-.554.645-3.23.276-3.969zm25.562-35.25c-4.89 0-7.936 3.783-7.936 9.688 0 5.999 2.676 12.92 10.243 12.92 1.292 0 3.692-.554 4.798-1.846 1.754-1.66 2.954-4.983 2.954-8.49 0-7.659-3.784-12.273-10.059-12.273zm-.646 40.787c-1.845 0-3.138.554-3.968 1.016-3.876 2.49-5.629 4.89-5.629 7.752 0 2.675 1.015 4.797 3.23 6.643 2.676 2.307 6.367 3.415 11.073 3.415 9.413 0 13.566-5.076 13.566-10.058 0-3.508-1.754-5.815-5.352-7.106-2.584-1.108-7.29-1.662-12.92-1.662zm.646 23.994c-5.629 0-9.69-1.2-13.196-3.876-3.415-2.584-4.891-6.46-4.891-9.136 0-.738.185-2.769 1.846-4.614 1.014-1.108 3.23-3.23 8.49-6.829.184-.092.276-.184.276-.37 0-.184-.185-.369-.369-.46-4.337-1.661-5.629-4.338-5.999-5.814v-.185c-.091-.554-.276-1.107.555-1.661.646-.461 1.569-1.015 2.583-1.66 1.569-.924 3.23-1.939 4.245-2.77.185-.184.185-.368.185-.553 0-.185-.185-.37-.37-.461-6.458-2.123-9.688-6.922-9.688-14.12 0-4.706 2.122-8.951 5.905-11.627 2.584-2.03 9.044-4.522 13.289-4.522h.277c4.337.092 6.736 1.015 10.15 2.215 1.846.646 3.6.922 6 .922 3.598 0 5.167-1.107 6.458-2.398.093.184.278.646.37 1.845.092 1.2-.277 2.953-1.2 4.245-.738 1.015-2.399 1.754-4.06 1.754h-.462c-1.661-.185-2.4-.37-2.4-.37l-.368.185c-.092.185 0 .369.092.646l.093.185c.184.83.553 3.321.553 3.968 0 7.567-3.045 10.888-6.275 13.38-3.138 2.307-6.736 3.783-10.797 4.153-.092 0-.46 0-1.292.092-.461 0-1.107.093-1.2.093h-.092c-.738.184-2.583 1.107-2.583 2.675 0 1.384.83 3.046 4.798 3.323.83.092 1.66.092 2.584.185 5.26.368 11.812.83 14.857 1.845 4.245 1.568 6.921 5.352 6.921 9.874 0 6.83-4.89 13.197-13.011 17.164-3.968 1.754-7.937 2.677-12.274 2.677zm52.6-64.32c-1.937 0-3.691.46-4.983 1.383-3.598 2.215-5.444 6.645-5.444 13.104 0 12.09 6.09 20.58 14.765 20.58 2.584 0 4.614-.739 6.367-2.215 2.676-2.216 4.061-6.645 4.061-12.828 0-11.996-5.999-20.025-14.765-20.025zm1.662 39.496c-15.688 0-21.317-11.535-21.317-22.332 0-7.567 3.045-13.381 9.135-17.534 4.338-2.676 9.506-4.152 14.12-4.152 11.996 0 20.394 8.582 20.394 20.948 0 8.397-3.322 15.041-9.69 19.102-3.045 2.03-8.305 3.968-12.643 3.968h.001zM187.411 81.595c-1.938 0-3.691.461-4.984 1.384-3.598 2.215-5.444 6.645-5.444 13.104 0 12.09 6.09 20.58 14.765 20.58 2.584 0 4.614-.739 6.368-2.215 2.675-2.216 4.06-6.645 4.06-12.828 0-11.996-5.906-20.025-14.765-20.025zm1.661 39.497c-15.688 0-21.317-11.535-21.317-22.332 0-7.567 3.045-13.381 9.135-17.534 4.338-2.676 9.506-4.152 14.12-4.152 11.997 0 20.394 8.582 20.394 20.948 0 8.397-3.322 15.041-9.69 19.102-2.953 2.03-8.213 3.968-12.642 3.968zm-105.478-.923c-.185-.276-.37-1.107-.277-2.122 0-.739.185-1.2.277-1.384 1.938-.278 2.953-.555 4.06-.831 1.846-.462 2.584-1.476 2.676-3.783.278-5.537.278-16.058.185-23.348v-.185c0-.83 0-1.846-1.015-2.584-1.477-.922-3.23-1.752-5.537-2.4-.83-.275-1.384-.737-1.292-1.29 0-.554.554-1.2 1.754-1.385 3.045-.277 10.98-2.214 14.118-3.599.185.184.462.739.462 1.477l-.092 1.014c-.093 1.016-.185 2.216-.185 3.415 0 .369.37.646.738.646.185 0 .37-.092.554-.185 5.906-4.614 11.258-6.275 14.026-6.275 4.523 0 8.03 2.123 10.706 6.552.184.278.369.37.646.37.184 0 .46-.092.553-.277 5.445-4.153 10.89-6.645 14.488-6.645 8.582 0 13.658 6.368 13.658 17.165 0 3.045 0 7.013-.092 10.613 0 3.229-.092 6.182-.092 8.305 0 .46.645 1.937 1.66 2.214 1.292.646 3.046.923 5.353 1.292h.092c.185.646-.184 3.045-.553 3.507-.554 0-1.385 0-2.307-.092a136.208 136.208 0 0 0-7.014-.185c-5.721 0-8.674.092-11.536.277-.183-.738-.276-2.953 0-3.507 1.662-.276 2.492-.554 3.508-.83 1.846-.554 2.307-1.385 2.4-3.784 0-1.753.368-16.703-.186-20.302-.553-3.691-3.322-8.028-9.413-8.028-2.307 0-5.905.923-9.412 3.598-.184.185-.37.646-.37.923v.093c.37 1.937.37 4.153.37 7.567v5.998c0 4.153-.093 8.029 0 10.981 0 2.031 1.2 2.492 2.215 2.862.554.091.922.184 1.384.276.83.185 1.661.37 2.953.646.185.37.185 1.569-.092 2.584-.093.554-.278.83-.37.923-3.137-.092-6.367-.185-11.073-.185-1.384 0-3.784.093-5.814.093-1.662 0-3.23.092-4.152.092-.093-.185-.278-.83-.278-1.846 0-.83.185-1.476.37-1.661.461-.092.83-.184 1.292-.184 1.106-.185 2.03-.37 2.952-.554 1.57-.461 2.123-1.292 2.215-3.322.277-4.614.554-17.81-.092-21.133-1.107-5.352-4.152-8.028-9.044-8.028-2.86 0-6.46 1.384-9.412 3.6-.462.368-.831 1.29-.831 2.121v5.445c0 6.644 0 14.95.092 18.549.093 1.106.461 2.399 2.584 2.86.462.092 1.2.277 2.123.37l1.66.276c.186.554.093 2.769-.276 3.507-.923 0-2.03-.092-3.323-.092a150.02 150.02 0 0 0-7.197-.185c-3.23 0-5.537.092-7.383.185-1.292-.185-2.307-.185-3.414-.185z"/><path fill="#FFF" d="M35.053 142.317l-3.783-1.293s.462-19.286-6.46-20.67c-4.613-5.353.74-227.013 17.35-.739 0 0-5.722 2.86-6.737 7.752-1.108 4.799-.37 14.95-.37 14.95z"/><path fill="#A6A385" d="M35.053 142.317l-3.783-1.293s.462-19.286-6.46-20.67c-4.613-5.353.74-227.013 17.35-.739 0 0-5.722 2.86-6.737 7.752-1.108 4.799-.37 14.95-.37 14.95z"/><path fill="#FFF" d="M37.084 123.676s33.13-21.779 25.377-67.09c-7.474-32.943-25.1-43.74-27.038-47.893C33.301 5.74 31.27.573 31.27.573l1.385 91.634c0 .093-2.861 28.054 4.43 31.47"/><path fill="#499D4A" d="M37.084 123.676s33.13-21.779 25.377-67.09c-7.474-32.943-25.1-43.74-27.038-47.893C33.301 5.74 31.27.573 31.27.573l1.385 91.634c0 .093-2.861 28.054 4.43 31.47"/><path fill="#FFF" d="M29.333 124.875S-1.767 103.65.079 66.277C1.832 28.903 23.795 10.539 28.04 7.217c2.769-2.953 2.861-4.061 3.046-7.014 1.938 4.153 1.569 62.106 1.845 68.934.83 26.3-1.476 50.756-3.598 55.738z"/><path fill="#58AA50" d="M29.333 124.875S-1.767 103.65.079 66.277C1.832 28.903 23.795 10.539 28.04 7.217c2.769-2.953 2.861-4.061 3.046-7.014 1.938 4.153 1.569 62.106 1.845 68.934.83 26.3-1.476 50.756-3.598 55.738z"/></g></symbol></svg>